<?xml version="1.0" encoding="utf-8"?>
<!-- Generator: Adobe Illustrator 13.0.0, SVG Export Plug-In . SVG Version: 6.00 Build 14948)  -->
<!DOCTYPE svg PUBLIC "-//W3C//DTD SVG 1.1//EN" "http://www.w3.org/Graphics/SVG/1.1/DTD/svg11.dtd">
<svg version="1.1" id="Layer_1" xmlns="http://www.w3.org/2000/svg" xmlns:xlink="http://www.w3.org/1999/xlink" x="0px" y="0px"
	 width="24px" height="24px" viewBox="-3.027 -4.573 24 24" style="enable-background:new -3.027 -4.573 24 24;"
	 xml:space="preserve">
<style type="text/css">
<![CDATA[
	.st0{fill:none;}
]]>
</style>
<path d="M6.382,7.134c2.343,0,4.242-1.903,4.242-4.255c0-2.348-1.901-4.251-4.242-4.251c-2.347,0-4.245,1.903-4.245,4.254
	C2.136,5.23,4.034,7.134,6.382,7.134z M17.421,10.479c0-0.242-0.027-0.479-0.072-0.703l1.152-0.813L17.54,7.297l-1.277,0.593
	c-0.35-0.307-0.762-0.551-1.215-0.7l-0.125-1.41h-1.922l-0.125,1.41c-0.451,0.149-0.863,0.394-1.213,0.7l-1.279-0.593L9.425,8.966
	l1.152,0.812c-0.047,0.225-0.072,0.461-0.072,0.703c0,0.241,0.025,0.476,0.072,0.702l-1.152,0.813l0.958,1.665l1.279-0.594
	c0.35,0.313,0.762,0.554,1.213,0.704l0.125,1.408h1.922l0.125-1.408c0.453-0.15,0.865-0.392,1.215-0.704l1.277,0.594l0.961-1.665
	l-1.152-0.813C17.393,10.955,17.421,10.72,17.421,10.479z M13.962,11.852c-0.754,0-1.373-0.614-1.373-1.372
	c0-0.759,0.619-1.374,1.373-1.374c0.76,0,1.375,0.615,1.375,1.374S14.721,11.852,13.962,11.852z M11.608,14.076L10.1,14.779
	l-1.718-2.987l1.359-0.957c-0.006-0.104-0.01-0.207-0.01-0.31c0-0.108,0.004-0.211,0.01-0.315l-1.36-0.959l1.033-1.79
	C9.37,7.452,9.33,7.434,9.286,7.425c-0.845,0.549-1.837,0.87-2.92,0.87c-1.079,0-2.102-0.318-2.945-0.865
	C0.59,8.016-1.553,10.53-1.553,13.546v1.682h13.777l-0.074-0.836C11.962,14.299,11.782,14.197,11.608,14.076z"/>
<rect x="-3.527" y="-5.073" class="st0" width="24" height="24"/>
</svg>
