<?xml version="1.0" encoding="utf-8"?>
<!-- Generator: Adobe Illustrator 13.0.0, SVG Export Plug-In . SVG Version: 6.00 Build 14948)  -->
<!DOCTYPE svg PUBLIC "-//W3C//DTD SVG 1.1//EN" "http://www.w3.org/Graphics/SVG/1.1/DTD/svg11.dtd">
<svg version="1.1" id="Layer_1" xmlns="http://www.w3.org/2000/svg" xmlns:xlink="http://www.w3.org/1999/xlink" x="0px" y="0px"
	 width="24px" height="24px" viewBox="-3.338 -3.656 24 24" style="enable-background:new -3.338 -3.656 24 24;"
	 xml:space="preserve">
<style type="text/css">
<![CDATA[
	.st0{fill:none;}
]]>
</style>
<path d="M-1.843,17.483h3.875v-5.135h-3.875V17.483z M3.535,17.483H7.41V8.526H3.535V17.483z M8.913,17.483h3.876v-7.02H8.913
	V17.483z M14.291,6.22v11.263h3.876V6.22H14.291z M0.06,7.305c1.013,0,1.833-0.822,1.833-1.833c0-0.267-0.058-0.518-0.16-0.746
	l3.022-3.012c0.23,0.104,0.484,0.16,0.749,0.16c0.264-0.001,0.513-0.058,0.737-0.156l2.939,2.993
	C9.078,4.942,9.018,5.199,9.018,5.472c0,1.009,0.821,1.832,1.832,1.832c1.016,0,1.836-0.823,1.836-1.832
	c0-0.27-0.059-0.523-0.165-0.752l2.988-3.004c0.228,0.101,0.479,0.157,0.744,0.157c1.014,0,1.833-0.819,1.833-1.833
	c0-1.013-0.819-1.833-1.833-1.833c-1.013,0-1.832,0.82-1.832,1.833c0,0.268,0.057,0.522,0.158,0.751l-2.986,3.002
	c-0.226-0.099-0.478-0.155-0.743-0.155c-0.26,0-0.509,0.055-0.734,0.151l-2.939-2.99c0.105-0.231,0.167-0.487,0.167-0.76
	C7.342-0.974,6.52-1.794,5.506-1.794c-1.011,0-1.833,0.82-1.833,1.833c0,0.268,0.059,0.518,0.16,0.747L0.81,3.798
	c-0.229-0.103-0.483-0.16-0.75-0.16c-1.012,0-1.834,0.82-1.834,1.833C-1.774,6.481-0.953,7.305,0.06,7.305z"/>
<rect x="-3.838" y="-4.156" class="st0" width="24" height="24"/>
</svg>
