<?xml version="1.0" encoding="utf-8"?>
<!-- Generator: Adobe Illustrator 13.0.0, SVG Export Plug-In . SVG Version: 6.00 Build 14948)  -->
<!DOCTYPE svg PUBLIC "-//W3C//DTD SVG 1.1//EN" "http://www.w3.org/Graphics/SVG/1.1/DTD/svg11.dtd">
<svg version="1.1" id="Layer_1" xmlns="http://www.w3.org/2000/svg" xmlns:xlink="http://www.w3.org/1999/xlink" x="0px" y="0px"
	 width="24px" height="24px" viewBox="-3.027 -4.573 24 24" style="enable-background:new -3.027 -4.573 24 24;"
	 xml:space="preserve">
<style type="text/css">
<![CDATA[
	.st0{fill:none;}
]]>
</style>
<rect x="-3.527" y="-5.073" class="st0" width="24" height="24"/>
<path d="M14.635-0.091h-4.371v-0.879c0-1.09-0.884-1.975-1.975-1.975c-1.09,0-1.975,0.884-1.975,1.975v0.879H2.015
	c-0.813,0-1.471,0.658-1.471,1.471L0.542,15.581c0.002,0.813,0.66,1.471,1.473,1.471h12.62c0.813,0,1.471-0.658,1.471-1.471
	l0.002-14.202C16.105,0.567,15.447-0.089,14.635-0.091z M8.289-1.745c0.401,0,0.725,0.324,0.725,0.725
	c0,0.4-0.324,0.725-0.725,0.725c-0.399,0-0.725-0.325-0.725-0.725C7.564-1.421,7.889-1.745,8.289-1.745z M15.105,15.581
	c0,0.259-0.21,0.471-0.471,0.471H2.015c-0.262,0-0.471-0.212-0.473-0.471L1.544,1.379c0-0.261,0.209-0.471,0.471-0.471h2.59v1.664
	c0,0.113,0.092,0.205,0.204,0.205h7.032c0.113,0,0.205-0.092,0.205-0.205V0.908h2.589c0.261,0,0.471,0.21,0.473,0.471L15.105,15.581
	z M3.005,6.157L3.005,6.157V6.155V6.157z M4.619,6.262L3.675,5.412L3.006,6.156l1.643,1.479l2.213-2.174L6.162,4.748L4.619,6.262z
	 M8.68,6.64h5.048V5.639H8.68V6.64z M8.68,12.023h5.048v-1.001H8.68V12.023z M5.715,9.721l-0.898,0.898L3.918,9.721l-0.708,0.707
	l0.898,0.898l-0.898,0.898l0.708,0.707l0.898-0.898l0.898,0.898l0.708-0.707l-0.898-0.898l0.898-0.898L5.715,9.721z"/>
</svg>
