<?xml version="1.0" encoding="utf-8"?>
<!-- Generator: Adobe Illustrator 13.0.0, SVG Export Plug-In . SVG Version: 6.00 Build 14948)  -->
<!DOCTYPE svg PUBLIC "-//W3C//DTD SVG 1.1//EN" "http://www.w3.org/Graphics/SVG/1.1/DTD/svg11.dtd">
<svg version="1.1" id="Layer_1" xmlns="http://www.w3.org/2000/svg" xmlns:xlink="http://www.w3.org/1999/xlink" x="0px" y="0px"
	 width="24px" height="24px" viewBox="-3.46 -4.584 24 24" style="enable-background:new -3.46 -4.584 24 24;" xml:space="preserve"
	>
<style type="text/css">
<![CDATA[
	.st0{fill:none;}
]]>
</style>
<path d="M17.442,9.451V7.63c-0.002-5.192-4.211-9.401-9.405-9.401c-5.192,0-9.402,4.209-9.402,9.401v1.821
	c-0.362,0.273-0.599,0.701-0.599,1.189v1.914c0,0.822,0.664,1.484,1.482,1.484c0.137,0,0.268-0.02,0.394-0.051v0.131
	c0,0.818,0.665,1.48,1.482,1.48c0.818,0,1.482-0.662,1.482-1.48V9.076c0-0.82-0.664-1.483-1.482-1.483
	c-0.817,0-1.482,0.663-1.482,1.483v0.137c-0.126-0.035-0.255-0.059-0.394-0.059c-0.022,0-0.049,0.006-0.072,0.006V7.63
	c0-1.782,0.543-3.435,1.47-4.806c0.026,0.032,0.059,0.061,0.092,0.092C1.36,3.208,1.877,3.16,2.173,2.808
	c1.403-1.682,3.505-2.75,5.866-2.75c2.363,0,4.472,1.073,5.873,2.761c0.164,0.198,0.403,0.298,0.638,0.298
	c0.187,0,0.375-0.062,0.528-0.191c0.031-0.027,0.063-0.059,0.093-0.091c0.922,1.372,1.46,3.02,1.46,4.796V9.16
	c-0.022,0-0.047-0.004-0.069-0.004c-0.137,0-0.269,0.02-0.393,0.059V9.076c0-0.818-0.666-1.482-1.484-1.482
	c-0.819,0-1.483,0.664-1.483,1.482v5.043c0,0.82,0.664,1.484,1.483,1.484c0.818,0,1.484-0.664,1.484-1.484V13.99
	c0.126,0.031,0.252,0.051,0.393,0.051c0.817,0,1.481-0.664,1.481-1.484v-1.914C18.04,10.152,17.804,9.725,17.442,9.451z"/>
<rect x="-3.96" y="-5.084" class="st0" width="24" height="24"/>
</svg>
