<?xml version="1.0" encoding="utf-8"?>
<!-- Generator: Adobe Illustrator 13.0.0, SVG Export Plug-In . SVG Version: 6.00 Build 14948)  -->
<!DOCTYPE svg PUBLIC "-//W3C//DTD SVG 1.1//EN" "http://www.w3.org/Graphics/SVG/1.1/DTD/svg11.dtd">
<svg version="1.1" id="Layer_1" xmlns="http://www.w3.org/2000/svg" xmlns:xlink="http://www.w3.org/1999/xlink" x="0px" y="0px"
	 width="29.322px" height="25.464px" viewBox="0 0 29.322 25.464" style="enable-background:new 0 0 29.322 25.464;"
	 xml:space="preserve">
<style type="text/css">
<![CDATA[
	.st0{fill:none;}
]]>
</style>
<path d="M24.316,14.971v-1.966C24.314,7.396,19.768,2.85,14.159,2.85c-5.608,0-10.155,4.546-10.155,10.155v1.966
	c-0.391,0.294-0.646,0.758-0.646,1.285v2.068c0,0.886,0.717,1.601,1.6,1.601c0.148,0,0.29-0.02,0.425-0.054v0.141
	c0,0.885,0.718,1.6,1.601,1.6s1.601-0.715,1.601-1.6v-5.448c0-0.884-0.718-1.599-1.601-1.599s-1.601,0.715-1.601,1.599v0.149
	c-0.136-0.037-0.276-0.06-0.425-0.06c-0.024,0-0.052,0.004-0.077,0.004v-1.652c0-1.925,0.585-3.71,1.587-5.191
	c0.028,0.035,0.062,0.066,0.098,0.1c0.38,0.315,0.941,0.263,1.259-0.117c1.516-1.817,3.786-2.97,6.336-2.97
	c2.554,0,4.829,1.159,6.344,2.981c0.176,0.214,0.433,0.322,0.688,0.322c0.2,0,0.403-0.066,0.569-0.206
	c0.037-0.03,0.069-0.064,0.1-0.098c0.996,1.481,1.579,3.261,1.579,5.18v1.652c-0.025,0-0.052-0.003-0.077-0.003
	c-0.148,0-0.29,0.021-0.424,0.059v-0.149c0-0.883-0.718-1.599-1.601-1.599c-0.884,0-1.602,0.716-1.602,1.599v5.448
	c0,0.885,0.718,1.601,1.602,1.601c0.883,0,1.601-0.716,1.601-1.601v-0.14c0.135,0.034,0.275,0.055,0.424,0.055
	c0.884,0,1.601-0.717,1.601-1.602v-2.069C24.962,15.729,24.708,15.265,24.316,14.971z"/>
<rect x="2.161" y="0.232" class="st0" width="24" height="24"/>
</svg>
