<?xml version="1.0" encoding="utf-8"?>
<!-- Generator: Adobe Illustrator 13.0.0, SVG Export Plug-In . SVG Version: 6.00 Build 14948)  -->
<!DOCTYPE svg PUBLIC "-//W3C//DTD SVG 1.1//EN" "http://www.w3.org/Graphics/SVG/1.1/DTD/svg11.dtd">
<svg version="1.1" id="Layer_1"
	xmlns="http://www.w3.org/2000/svg"
	xmlns:xlink="http://www.w3.org/1999/xlink" x="0px" y="0px" width="370px" height="190px" viewBox="0 0 370 190" style="enable-background:new 0 0 370 190;" xml:space="preserve">
	<g>
		<circle fill="#EAB51F" cx="112.679" cy="36.098" r="13.174"/>
		<circle fill="#EAB51F" cx="199.842" cy="26.498" r="22.774"/>
		<g>
			<path fill="#0088DB" d="M42.514,61.733c-10.367,0-19.777,4.588-26.741,12.05V40.166h-0.005c0-0.018,0.002-0.034,0.002-0.052
			c0-3.339-2.708-6.046-6.047-6.046c-3.34,0-6.047,2.707-6.047,6.046c0,0.023,0.003,0.045,0.003,0.067v63.904l0.039-0.008
			c-0.013,0.471-0.032,0.939-0.032,1.413c0,24.168,17.384,43.759,38.827,43.759c21.445,0,38.829-19.591,38.829-43.759
			C81.343,81.324,63.959,61.733,42.514,61.733z M42.514,136.899c-14.788,0-26.776-14.063-26.776-31.408
			c0-17.345,11.988-31.407,26.776-31.407c14.789,0,26.778,14.063,26.778,31.407C69.292,122.837,57.303,136.899,42.514,136.899z
			 M112.67,62.365c-3.339,0-6.047,2.708-6.047,6.047c0,0.062,0.007,0.122,0.009,0.184v73.122c-0.002,0.062-0.009,0.122-0.009,0.184
			c0,3.341,2.708,6.048,6.047,6.048c3.323,0,6.019-2.681,6.045-5.999h0.011V68.376h-0.011
			C118.696,65.054,115.998,62.365,112.67,62.365z M205.878,68.412c0-3.339-2.708-6.047-6.048-6.047s-6.047,2.708-6.047,6.047
			c0,0.075,0.009,0.148,0.012,0.223v73.038c-0.003,0.074-0.012,0.147-0.012,0.223c0,3.339,2.707,6.047,6.047,6.047
			c3.328,0,6.026-2.688,6.046-6.011h0.013V68.43h-0.012C205.877,68.424,205.878,68.418,205.878,68.412z M272.492,136.001
			c-0.027,0-0.052,0.004-0.078,0.004h-1.141c-5.13-0.004-9.717-2.063-13.085-5.421c-3.358-3.366-5.417-7.955-5.419-13.083V74.955
			h14.223v-0.01c3.333-0.008,6.033-2.712,6.033-6.046c0-3.339-2.708-6.046-6.048-6.046c-0.046,0-0.09,0.006-0.136,0.007H252.77
			V40.144h-0.015c0-0.01,0.001-0.02,0.001-0.029c0-3.339-2.707-6.046-6.047-6.046s-6.047,2.707-6.047,6.046
			c0,0.088,0.01,0.174,0.014,0.261v77.126c-0.003,8.431,3.434,16.117,8.961,21.635c5.518,5.528,13.205,8.965,21.637,8.963h1.244
			v-0.004c3.328-0.015,6.021-2.717,6.021-6.048C278.539,138.708,275.832,136.001,272.492,136.001z M172.27,136.039v-0.017h-0.823
			c-3.6-0.004-6.803-1.441-9.168-3.797c-2.356-2.365-3.795-5.569-3.798-9.169V40.075h-0.021c-0.021-3.321-2.718-6.007-6.044-6.007
			c-3.34,0-6.047,2.707-6.047,6.046c0,0.117,0.011,0.232,0.018,0.348v82.595c-0.003,6.901,2.814,13.204,7.34,17.72
			c4.516,4.525,10.819,7.343,17.72,7.341h0.484c0.013,0,0.025,0.002,0.039,0.002s0.025-0.002,0.039-0.002h0.262v-0.014
			c3.199-0.157,5.747-2.794,5.747-6.032S175.468,136.197,172.27,136.039z M366.068,68.633c0.031-3.469-2.754-6.308-6.223-6.34
			c-2.77-0.025-5.131,1.746-5.99,4.225l-26.627,62.179l-28.727-62.155c-0.844-2.472-3.181-4.252-5.939-4.252
			c-3.469,0-6.28,2.812-6.28,6.28c0,1.052,0.262,2.042,0.72,2.914l-0.014,0.005l33.613,72.68l-1.557,3.637l0.73-1.645l-0.742,1.672
			c-0.086,0.204-3.248,6.646-6.01,10.907c-1.408,2.178-3.105,4.478-4.965,6.475c-1.854,2-3.867,3.678-5.799,4.726
			c-4.279,2.323-9.375,3.806-16.247,3.824v0.003c-3.435,0.007-6.233,2.774-6.267,6.218c-0.033,3.471,2.753,6.309,6.223,6.341
			c0.285,0.003,0.564-0.021,0.842-0.055c8.389-0.116,15.553-2.096,21.457-5.341c3.572-1.959,6.547-4.572,9.086-7.315
			c3.799-4.128,6.643-8.6,8.611-12.09c1.664-2.962,4.307-8.333,5.109-9.989l34.33-80.162
			C365.816,70.546,366.059,69.619,366.068,68.633z M331.313,151.035c-0.01,0.025-0.096,0.204-0.238,0.5l-0.523,1.22L331.313,151.035
			z"/>
		</g>
	</g>
	<rect x="-0.127" y="0.025" fill="none" width="370" height="190"/>
</svg>
