<?xml version="1.0" encoding="utf-8"?>
<!-- Generator: Adobe Illustrator 13.0.0, SVG Export Plug-In . SVG Version: 6.00 Build 14948)  -->
<!DOCTYPE svg PUBLIC "-//W3C//DTD SVG 1.1//EN" "http://www.w3.org/Graphics/SVG/1.1/DTD/svg11.dtd">
<svg version="1.1" id="Layer_1" xmlns="http://www.w3.org/2000/svg" xmlns:xlink="http://www.w3.org/1999/xlink" x="0px" y="0px"
	 width="406px" height="186px" viewBox="0 0 406 186" style="enable-background:new 0 0 406 186;" xml:space="preserve">
<style type="text/css">
<![CDATA[
	.st0{fill:#EAB51F;}
	.st1{fill:none;}
	.st2{fill:#0088DB;}
]]>
</style>
<path class="st0" d="M110.29,20.927c-7.276,0-13.174,5.897-13.174,13.173s5.898,13.174,13.174,13.174
	c7.275,0,13.173-5.898,13.173-13.174S117.565,20.927,110.29,20.927z M197.451,1.727c-12.577,0-22.773,10.195-22.773,22.773
	c0,12.577,10.196,22.773,22.773,22.773c12.578,0,22.773-10.196,22.773-22.773C220.225,11.922,210.029,1.727,197.451,1.727z"/>
<path class="st2" d="M40.124,59.735c-10.367,0-19.777,4.588-26.741,12.05V38.168h-0.005c0-0.018,0.002-0.034,0.002-0.052
	c0-3.339-2.708-6.046-6.047-6.046c-3.34,0-6.047,2.707-6.047,6.046c0,0.023,0.003,0.045,0.003,0.067v63.904l0.039-0.008
	c-0.013,0.471-0.032,0.939-0.032,1.413c0,24.168,17.384,43.759,38.827,43.759c21.445,0,38.829-19.591,38.829-43.759
	C78.953,79.326,61.569,59.735,40.124,59.735z M40.124,134.901c-14.788,0-26.776-14.063-26.776-31.408
	c0-17.345,11.988-31.407,26.776-31.407c14.789,0,26.778,14.063,26.778,31.407C66.902,120.839,54.913,134.901,40.124,134.901z
	 M110.28,60.367c-3.339,0-6.047,2.708-6.047,6.047c0,0.062,0.007,0.122,0.009,0.184v73.122c-0.002,0.062-0.009,0.122-0.009,0.184
	c0,3.341,2.708,6.048,6.047,6.048c3.323,0,6.019-2.681,6.045-5.999h0.011V66.378h-0.011
	C116.306,63.056,113.607,60.367,110.28,60.367z M203.488,66.414c0-3.339-2.708-6.047-6.048-6.047s-6.047,2.708-6.047,6.047
	c0,0.072,0.008,0.142,0.011,0.213v73.058c-0.002,0.071-0.011,0.141-0.011,0.213c0,3.339,2.707,6.047,6.047,6.047
	c3.328,0,6.026-2.688,6.046-6.011h0.013V66.432h-0.012C203.487,66.426,203.488,66.42,203.488,66.414z M270.102,134.003
	c-0.026,0-0.052,0.004-0.077,0.004h-1.142c-5.129-0.004-9.717-2.063-13.084-5.421c-3.359-3.366-5.417-7.955-5.42-13.083V72.957
	h14.223v-0.009c3.333-0.008,6.033-2.712,6.033-6.046c0-3.339-2.707-6.046-6.047-6.046c-0.046,0-0.09,0.006-0.136,0.007h-14.073
	V38.146h-0.014c0-0.01,0.001-0.02,0.001-0.029c0-3.339-2.708-6.046-6.047-6.046c-3.34,0-6.048,2.707-6.048,6.046
	c0,0.091,0.01,0.18,0.014,0.271v77.116c-0.002,8.431,3.434,16.117,8.962,21.635c5.517,5.528,13.204,8.965,21.636,8.963h1.245v-0.004
	c3.327-0.015,6.021-2.717,6.021-6.048C276.148,136.71,273.441,134.003,270.102,134.003z M169.879,134.041v-0.017h-0.822
	c-3.6-0.004-6.803-1.441-9.168-3.797c-2.356-2.365-3.795-5.569-3.798-9.169V38.077h-0.021c-0.021-3.321-2.718-6.007-6.044-6.007
	c-3.34,0-6.048,2.707-6.048,6.046c0,0.117,0.011,0.232,0.018,0.348v82.595c-0.002,6.901,2.814,13.204,7.34,17.72
	c4.517,4.525,10.819,7.343,17.721,7.341h0.484c0.013,0,0.025,0.002,0.039,0.002s0.025-0.002,0.039-0.002h0.261v-0.014
	c3.199-0.157,5.747-2.794,5.747-6.032S173.078,134.199,169.879,134.041z M363.678,66.635c0.032-3.469-2.754-6.308-6.223-6.34
	c-2.769-0.025-5.13,1.746-5.989,4.225l-26.628,62.179l-28.728-62.16c-0.846-2.47-3.181-4.248-5.938-4.248
	c-3.47,0-6.28,2.812-6.28,6.28c0,1.052,0.262,2.042,0.719,2.913l-0.014,0.006l33.614,72.68l-1.558,3.637l0.73-1.645l-0.741,1.672
	c-0.086,0.204-3.249,6.646-6.011,10.907c-1.408,2.178-3.105,4.478-4.964,6.475c-1.854,2-3.868,3.678-5.8,4.726
	c-4.278,2.323-9.375,3.806-16.246,3.824v0.003c-3.435,0.007-6.234,2.774-6.268,6.218c-0.032,3.471,2.754,6.309,6.223,6.341
	c0.286,0.003,0.565-0.021,0.842-0.055c8.389-0.116,15.552-2.096,21.458-5.341c3.572-1.959,6.546-4.572,9.085-7.315
	c3.799-4.128,6.643-8.6,8.612-12.09c1.664-2.962,4.306-8.333,5.108-9.989l34.33-80.162
	C363.426,68.548,363.669,67.621,363.678,66.635z M328.923,149.037c-0.01,0.025-0.097,0.204-0.239,0.5l-0.522,1.22L328.923,149.037z"
	/>
<path d="M369.502,19.121h4.48v11.996h1.8V19.121h4.499v-1.605h-10.779V19.121z M389.373,26.979c-0.328,0.959-0.568,1.686-0.723,2.18
	c-0.137-0.445-0.354-1.116-0.65-2.013l-3.219-9.63h-2.709v13.601h1.734V19.538l3.934,11.578h1.624l3.952-11.383v11.383h1.734V17.516
	h-2.421L389.373,26.979z M382.666,1.805c-11.89,0-21.528,9.637-21.528,21.529c0,11.887,9.639,21.522,21.528,21.525
	c11.888-0.002,21.526-9.638,21.526-21.525C404.192,11.442,394.554,1.805,382.666,1.805z M382.666,43.057
	c-10.895-0.019-19.711-8.833-19.729-19.724c0.019-10.897,8.835-19.709,19.729-19.728c10.893,0.019,19.709,8.831,19.728,19.728
	C402.375,34.224,393.559,43.038,382.666,43.057z"/>
<rect x="0.01" y="0.038" class="st1" width="406" height="186"/>
</svg>
