<?xml version="1.0" encoding="utf-8"?>
<!-- Generator: Adobe Illustrator 13.0.0, SVG Export Plug-In . SVG Version: 6.00 Build 14948)  -->
<!DOCTYPE svg PUBLIC "-//W3C//DTD SVG 1.1//EN" "http://www.w3.org/Graphics/SVG/1.1/DTD/svg11.dtd">
<svg version="1.1" id="Layer_1" xmlns="http://www.w3.org/2000/svg" xmlns:xlink="http://www.w3.org/1999/xlink" x="0px" y="0px"
	 width="24px" height="24px" viewBox="-2 -2 24 24" style="enable-background:new -2 -2 24 24;" xml:space="preserve">
<style type="text/css">
<![CDATA[
	.st0{fill:none;}
]]>
</style>
<rect x="-2.52" y="-2.454" class="st0" width="24" height="24"/>
<g>
	<path d="M2.22,1.363C2.223,0.24,3.125-0.663,4.244-0.667l0,0l10.471,0.002c1.117,0,2.027,0.902,2.029,2.027l0,0v17.229v1.162
		l-7.301-6.898L2.215,19.76L2.22,1.363L2.22,1.363z M15.748,17.436V1.363c-0.002-0.57-0.461-1.027-1.027-1.027l0,0L4.25,0.333
		C3.679,0.336,3.22,0.792,3.22,1.363l0,0v16.059l6.225-5.946L15.748,17.436L15.748,17.436z"/>
</g>
</svg>
