<?xml version="1.0" encoding="utf-8"?>
<!-- Generator: Adobe Illustrator 13.0.0, SVG Export Plug-In . SVG Version: 6.00 Build 14948)  -->
<!DOCTYPE svg PUBLIC "-//W3C//DTD SVG 1.1//EN" "http://www.w3.org/Graphics/SVG/1.1/DTD/svg11.dtd">
<svg version="1.1" id="Layer_1" xmlns="http://www.w3.org/2000/svg" xmlns:xlink="http://www.w3.org/1999/xlink" x="0px" y="0px"
	 width="24px" height="24px" viewBox="-2 -2 24 24" style="enable-background:new -2 -2 24 24;" xml:space="preserve">
<style type="text/css">
<![CDATA[
	.st0{fill:none;}
]]>
</style>
<path d="M7.261,8.232C6.669,7.641,5.858,7.276,4.955,7.276c-0.9,0-1.712,0.364-2.305,0.956c-0.59,0.592-0.953,1.403-0.954,2.305
	c0.001,0.9,0.363,1.713,0.954,2.307c0.592,0.588,1.403,0.953,2.305,0.953c0.903,0,1.714-0.365,2.307-0.953
	c0.591-0.594,0.955-1.404,0.955-2.307C8.216,9.635,7.852,8.824,7.261,8.232z M3.354,14.648v3.65l1.652-1.424l1.552,1.389v-3.615
	c-0.498,0.197-1.038,0.301-1.603,0.301C4.392,14.951,3.85,14.846,3.354,14.648z M-0.475,0.702v15.019h2.672v-1.736
	c-1.011-0.811-1.656-2.051-1.656-3.445c0-2.441,1.975-4.417,4.415-4.417s4.415,1.976,4.417,4.417c0,1.395-0.648,2.635-1.659,3.445
	v1.736h11.761V0.702H-0.475z M17.167,11.137h-4.848V9.981h4.848V11.137z M17.167,7.662h-6.604V6.507h6.604V7.662z M17.167,4.678
	H2.11V3.524h15.055v1.154H17.167z"/>
<rect x="-2.5" y="-2.5" class="st0" width="24" height="24"/>
</svg>
