<?xml version="1.0" encoding="utf-8"?>
<!-- Generator: Adobe Illustrator 13.0.0, SVG Export Plug-In . SVG Version: 6.00 Build 14948)  -->
<!DOCTYPE svg PUBLIC "-//W3C//DTD SVG 1.1//EN" "http://www.w3.org/Graphics/SVG/1.1/DTD/svg11.dtd">
<svg version="1.1" id="Layer_1" xmlns="http://www.w3.org/2000/svg" xmlns:xlink="http://www.w3.org/1999/xlink" x="0px" y="0px"
	 width="24px" height="24px" viewBox="-3.027 -4.573 24 24" style="enable-background:new -3.027 -4.573 24 24;"
	 xml:space="preserve">
<style type="text/css">
<![CDATA[
	.st0{fill:none;}
]]>
</style>
<rect x="-3.527" y="-5.073" class="st0" width="24" height="24"/>
<g>
	<g>
		<path d="M0.263,6.942c0-2.302,0.92-4.366,2.387-5.822C3.002,0.77,3.005,0.2,2.655-0.153C2.305-0.505,1.736-0.507,1.383-0.157
			c-1.802,1.788-2.92,4.313-2.92,7.099c0,2.803,1.131,5.342,2.952,7.131c0.175,0.173,0.403,0.259,0.631,0.259
			c0.233,0,0.466-0.09,0.642-0.269c0.348-0.354,0.344-0.925-0.011-1.272C1.195,11.333,0.263,9.258,0.263,6.942z M4.39,6.942
			c0-1.119,0.469-2.11,1.2-2.782C5.957,3.824,5.98,3.255,5.645,2.889C5.308,2.523,4.739,2.498,4.374,2.834
			C3.275,3.841,2.59,5.314,2.59,6.942c0,1.637,0.694,3.118,1.804,4.125c0.172,0.157,0.389,0.234,0.604,0.234
			c0.245,0,0.489-0.1,0.666-0.295c0.334-0.368,0.308-0.937-0.06-1.271C4.865,9.064,4.39,8.068,4.39,6.942z M15.573-0.157
			c-0.353-0.35-0.922-0.348-1.271,0.005c-0.35,0.353-0.348,0.922,0.005,1.273c1.466,1.455,2.388,3.519,2.388,5.821
			c0,2.315-0.933,4.391-2.414,5.849c-0.354,0.348-0.359,0.918-0.011,1.272c0.176,0.179,0.408,0.269,0.642,0.269
			c0.228,0,0.456-0.086,0.631-0.258c1.821-1.79,2.952-4.329,2.952-7.132C18.494,4.156,17.376,1.63,15.573-0.157z M12.583,2.834
			c-0.366-0.336-0.935-0.312-1.271,0.055C10.977,3.255,11,3.824,11.367,4.16c0.731,0.671,1.2,1.663,1.2,2.782
			c0,1.126-0.475,2.123-1.214,2.793c-0.368,0.335-0.395,0.904-0.06,1.271c0.177,0.195,0.421,0.295,0.666,0.295
			c0.216,0,0.433-0.077,0.604-0.233c1.109-1.008,1.804-2.489,1.804-4.126C14.367,5.314,13.682,3.842,12.583,2.834z M8.462,5.327
			C7.61,5.327,6.92,6.05,6.92,6.942c0,0.892,0.69,1.616,1.542,1.616s1.543-0.724,1.543-1.616C10.005,6.05,9.313,5.327,8.462,5.327z"
			/>
	</g>
</g>
</svg>
