<?xml version="1.0" encoding="utf-8"?>
<!-- Generator: Adobe Illustrator 13.0.0, SVG Export Plug-In . SVG Version: 6.00 Build 14948)  -->
<!DOCTYPE svg PUBLIC "-//W3C//DTD SVG 1.1//EN" "http://www.w3.org/Graphics/SVG/1.1/DTD/svg11.dtd">
<svg version="1.1" id="Layer_1" xmlns="http://www.w3.org/2000/svg" xmlns:xlink="http://www.w3.org/1999/xlink" x="0px" y="0px"
	 width="24px" height="24px" viewBox="-3.027 -4.573 24 24" style="enable-background:new -3.027 -4.573 24 24;"
	 xml:space="preserve">
<style type="text/css">
<![CDATA[
	.st0{fill:none;}
]]>
</style>
<rect x="-3.527" y="-5.073" class="st0" width="24" height="24"/>
<g>
	<g>
		<path d="M15.412-0.262c-0.715-0.715-1.654-1.075-2.59-1.072c-0.935-0.002-1.876,0.357-2.588,1.072L7.099,2.873
			c0.25-0.048,0.508-0.079,0.773-0.079c0.309,0,0.607,0.041,0.897,0.105l2.312-2.313c0.482-0.482,1.107-0.719,1.74-0.719
			s1.259,0.237,1.741,0.719c0.482,0.482,0.72,1.106,0.723,1.742c-0.003,0.631-0.24,1.257-0.725,1.741L10.8,7.832
			c-0.483,0.481-1.11,0.721-1.74,0.721c-0.633,0-1.26-0.24-1.743-0.721C6.88,7.394,6.652,6.833,6.613,6.259L5.592,7.223
			C5.766,7.754,6.048,8.258,6.469,8.68C7.181,9.393,8.123,9.754,9.06,9.752h0.007c0.932,0,1.869-0.36,2.582-1.072l3.764-3.763
			c0.713-0.716,1.073-1.656,1.071-2.59C16.485,1.39,16.127,0.45,15.412-0.262z M8.117,10.514L5.82,12.812
			c-0.482,0.482-1.109,0.72-1.74,0.72c-0.634,0-1.26-0.237-1.741-0.72c-0.483-0.483-0.722-1.109-0.723-1.742
			c0.001-0.632,0.24-1.258,0.723-1.741l3.763-3.763c0.482-0.481,1.11-0.721,1.74-0.721c0.632,0,1.259,0.239,1.742,0.721
			C10.018,6,10.244,6.553,10.287,7.121l1-1.02c-0.177-0.504-0.452-0.981-0.855-1.383c-0.715-0.715-1.654-1.075-2.59-1.075
			c-0.934,0-1.877,0.36-2.59,1.075L1.489,8.482c-0.715,0.71-1.072,1.652-1.072,2.587s0.358,1.876,1.072,2.591
			s1.653,1.073,2.591,1.073c0.934,0,1.874-0.358,2.589-1.073l3.193-3.193c-0.315,0.078-0.639,0.131-0.978,0.131
			C8.62,10.599,8.366,10.563,8.117,10.514z"/>
	</g>
</g>
</svg>
