<?xml version="1.0" encoding="utf-8"?>
<!-- Generator: Adobe Illustrator 13.0.0, SVG Export Plug-In . SVG Version: 6.00 Build 14948)  -->
<!DOCTYPE svg PUBLIC "-//W3C//DTD SVG 1.1//EN" "http://www.w3.org/Graphics/SVG/1.1/DTD/svg11.dtd">
<svg version="1.1" id="Layer_1" xmlns="http://www.w3.org/2000/svg" xmlns:xlink="http://www.w3.org/1999/xlink" x="0px" y="0px"
	 width="24px" height="24px" viewBox="-3.027 -4.573 24 24" style="enable-background:new -3.027 -4.573 24 24;"
	 xml:space="preserve">
<style type="text/css">
<![CDATA[
	.st0{fill:none;}
]]>
</style>
<rect x="-3.527" y="-5.073" class="st0" width="24" height="24"/>
<path d="M18.472,4.542c0.002-1.954-0.747-3.917-2.241-5.408c-1.489-1.49-3.451-2.24-5.405-2.238C8.872-3.105,6.91-2.355,5.42-0.865
	C4.572-0.018,3.972,0.983,3.605,2.047C2.541,2.414,1.54,3.013,0.693,3.861c-1.49,1.488-2.24,3.453-2.238,5.407
	c-0.002,1.951,0.748,3.915,2.238,5.404c1.49,1.492,3.454,2.242,5.407,2.24h0.008c1.951,0,3.911-0.75,5.399-2.24
	c0.848-0.847,1.447-1.849,1.813-2.912c1.063-0.367,2.064-0.964,2.91-1.812C17.723,8.458,18.474,6.497,18.472,4.542z M10.158,13.323
	c-1.123,1.122-2.588,1.678-4.058,1.68c-1.472-0.002-2.935-0.558-4.056-1.68c-1.123-1.123-1.679-2.585-1.68-4.055
	c0.001-1.473,0.558-2.938,1.68-4.058c0.35-0.349,0.74-0.624,1.145-0.864C3.187,4.412,3.179,4.477,3.179,4.542
	C3.177,6.495,3.928,8.458,5.417,9.949c1.491,1.49,3.455,2.238,5.408,2.238c0.065,0,0.131-0.008,0.197-0.01
	C10.782,12.584,10.507,12.974,10.158,13.323z M11.749,10.189c-0.306,0.05-0.614,0.088-0.923,0.089
	C9.353,10.276,7.89,9.721,6.769,8.599C5.646,7.476,5.09,6.013,5.088,4.542c0-0.31,0.039-0.618,0.089-0.925
	C5.482,3.568,5.791,3.529,6.1,3.529c1.47,0.002,2.933,0.56,4.058,1.681c1.121,1.123,1.679,2.585,1.679,4.058
	C11.837,9.577,11.798,9.884,11.749,10.189z M13.738,9.463c0.002-0.065,0.009-0.13,0.009-0.195c0-1.955-0.747-3.917-2.24-5.407
	C10.015,2.368,8.054,1.62,6.1,1.62c-0.065,0-0.131,0.008-0.197,0.01c0.241-0.405,0.516-0.795,0.865-1.145
	c1.124-1.122,2.586-1.679,4.057-1.681c1.47,0.002,2.934,0.559,4.057,1.681c1.122,1.122,1.678,2.585,1.68,4.057
	c-0.002,1.471-0.558,2.934-1.68,4.057C14.533,8.949,14.144,9.223,13.738,9.463z"/>
</svg>
