<?xml version="1.0" encoding="utf-8"?>
<!-- Generator: Adobe Illustrator 13.0.0, SVG Export Plug-In . SVG Version: 6.00 Build 14948)  -->
<!DOCTYPE svg PUBLIC "-//W3C//DTD SVG 1.1//EN" "http://www.w3.org/Graphics/SVG/1.1/DTD/svg11.dtd">
<svg version="1.1" id="Layer_1" xmlns="http://www.w3.org/2000/svg" xmlns:xlink="http://www.w3.org/1999/xlink" x="0px" y="0px"
	 width="24px" height="24px" viewBox="-3.179 -3.179 24 24" style="enable-background:new -3.179 -3.179 24 24;"
	 xml:space="preserve">
<style type="text/css">
<![CDATA[
	.st0{fill:none;}
]]>
</style>
<rect x="-3.679" y="-3.68" class="st0" width="24" height="24"/>
<g>
	<g>
		<path d="M8.306,12.834c-0.339,0.338-0.887,0.338-1.227,0c-0.338-0.338-0.338-0.886,0-1.225l1.658-1.658
			c0.339-0.338,0.887-0.338,1.226,0c0.07,0.07,0.124,0.148,0.166,0.232l0.7-0.7c-0.055-0.074-0.117-0.146-0.184-0.213
			c-0.715-0.715-1.874-0.715-2.588,0l-1.658,1.657c-0.715,0.716-0.715,1.873,0,2.589c0.714,0.713,1.873,0.713,2.588,0l1.052-1.053
			c-0.395,0.031-0.796-0.035-1.165-0.199L8.306,12.834z M9.754,8.192c0.196,0.033,0.387,0.09,0.57,0.171l0.569-0.569
			c0.339-0.337,0.887-0.337,1.226,0c0.338,0.339,0.338,0.887,0,1.226l-1.657,1.658C10.195,10.944,9.799,11,9.477,10.846
			c-0.021-0.011-0.041-0.02-0.061-0.032c-0.003-0.002-0.006-0.004-0.01-0.005c-0.017-0.011-0.034-0.021-0.051-0.033
			c-0.007-0.005-0.016-0.012-0.024-0.017c-0.012-0.01-0.023-0.018-0.035-0.028c-0.021-0.017-0.042-0.035-0.061-0.054
			c-0.018-0.018-0.035-0.037-0.051-0.056C9.18,10.615,9.174,10.607,9.169,10.6c-0.011-0.013-0.02-0.025-0.03-0.039
			c-0.005-0.008-0.011-0.017-0.016-0.025c-0.007-0.013-0.016-0.025-0.023-0.038c-0.005-0.008-0.01-0.017-0.014-0.025
			c-0.007-0.015-0.015-0.029-0.022-0.042l-0.702,0.702c0.002,0.002,0.004,0.004,0.005,0.006c0.04,0.056,0.084,0.109,0.13,0.161
			c0.002,0.002,0.003,0.004,0.005,0.006c0.017,0.018,0.034,0.036,0.052,0.054c0.02,0.019,0.041,0.039,0.062,0.057
			c0.007,0.008,0.016,0.015,0.023,0.021c0.013,0.012,0.025,0.022,0.037,0.033c0.011,0.009,0.021,0.017,0.032,0.025
			c0.011,0.008,0.021,0.016,0.031,0.023c0.718,0.548,1.747,0.495,2.403-0.16l1.658-1.658c0.715-0.715,0.715-1.874,0-2.588
			c-0.716-0.714-1.873-0.714-2.588,0L9.161,8.166c0.196-0.016,0.395-0.008,0.59,0.025C9.752,8.191,9.753,8.191,9.754,8.192z
			 M15.526,16.738L15.504,1.661h-0.599L13.341,1.66v-2.241H1.498v14.987h2.146v2.332H15.526z M14.305,2.859l-0.006,12.678H4.843
			V7.499h2.872c0.777-0.002,1.406-0.628,1.408-1.405V2.854L14.305,2.859z M5.53,6.299l2.393-2.559v2.353
			c0,0.109-0.096,0.206-0.208,0.206H5.53z M2.697,13.205V0.618h9.445v1.041L8.231,1.655L3.644,6.561v6.645H2.697z"/>
	</g>
</g>
</svg>
