<?xml version="1.0" encoding="utf-8"?>
<!-- Generator: Adobe Illustrator 13.0.0, SVG Export Plug-In . SVG Version: 6.00 Build 14948)  -->
<!DOCTYPE svg PUBLIC "-//W3C//DTD SVG 1.1//EN" "http://www.w3.org/Graphics/SVG/1.1/DTD/svg11.dtd">
<svg version="1.1" id="Layer_1" xmlns="http://www.w3.org/2000/svg" xmlns:xlink="http://www.w3.org/1999/xlink" x="0px" y="0px"
	 width="24px" height="24px" viewBox="-2 -2 24 24" style="enable-background:new -2 -2 24 24;" xml:space="preserve">
<style type="text/css">
<![CDATA[
	.st0{fill:none;}
]]>
</style>
<path d="M19.136,6.219l-8.846-3.65C9.582,2.268,9.208,2.317,8.522,2.635l-8.796,3.635c-0.476,0.25-0.524,0.799,0.075,1.021
	l0.48,0.202v5.504C-0.158,13.15-0.48,13.556-0.48,14.05c0,0.622,0.501,1.121,1.122,1.121c0.62,0,1.122-0.5,1.122-1.121
	c0-0.427-0.245-0.784-0.594-0.974V7.865l7.51,3.131c0.8,0.352,0.976,0.275,1.727-0.022l8.752-3.63
	C19.863,7.02,19.739,6.419,19.136,6.219z M9.501,12.34c-0.363,0-0.75-0.096-1.267-0.325L3.396,9.997v5.13
	c0,0.922,3.02,1.506,6.003,1.506c2.983,0,6.005-0.919,6.005-1.844v-4.68l-4.569,1.894C10.308,12.209,9.919,12.34,9.501,12.34z"/>
<rect x="-2.5" y="-2.5" class="st0" width="24" height="24"/>
</svg>
