<?xml version="1.0" encoding="utf-8"?>
<!-- Generator: Adobe Illustrator 13.0.0, SVG Export Plug-In . SVG Version: 6.00 Build 14948)  -->
<!DOCTYPE svg PUBLIC "-//W3C//DTD SVG 1.1//EN" "http://www.w3.org/Graphics/SVG/1.1/DTD/svg11.dtd">
<svg version="1.1" id="Layer_1" xmlns="http://www.w3.org/2000/svg" xmlns:xlink="http://www.w3.org/1999/xlink" x="0px" y="0px"
	 width="24px" height="24px" viewBox="0 0 24 24" style="enable-background:new 0 0 24 24;" xml:space="preserve">
<style type="text/css">
<![CDATA[
	.st0{fill:none;}
]]>
</style>
<rect x="-0.5" y="-0.5" class="st0" width="24" height="24"/>
<path d="M15.1,2.826l-0.848-1.334H8.96L8.113,2.827H4.161v2.668h14.678V2.827L15.1,2.826L15.1,2.826z M5.495,19.799
	c0,0.836,0.738,1.709,1.571,1.709h9.2c0.834,0,1.236-0.872,1.236-1.709V7.207H5.495V19.799z M14.001,10.331
	c0-0.399,0.324-0.724,0.724-0.724c0.398,0,0.728,0.324,0.728,0.724v7.671c0,0.4-0.323,0.725-0.728,0.725
	c-0.396,0-0.724-0.316-0.724-0.725V10.331z M10.775,10.331c0-0.399,0.326-0.724,0.725-0.724c0.396,0,0.723,0.324,0.723,0.724v7.671
	c0,0.4-0.324,0.725-0.723,0.725s-0.725-0.316-0.725-0.725V10.331z M7.552,10.331c0-0.399,0.323-0.724,0.724-0.724
	c0.399,0,0.723,0.324,0.723,0.724v7.671c0,0.4-0.323,0.725-0.723,0.725s-0.724-0.316-0.724-0.725V10.331z"/>
</svg>
