<?xml version="1.0" encoding="utf-8"?>
<!-- Generator: Adobe Illustrator 13.0.0, SVG Export Plug-In . SVG Version: 6.00 Build 14948)  -->
<!DOCTYPE svg PUBLIC "-//W3C//DTD SVG 1.1//EN" "http://www.w3.org/Graphics/SVG/1.1/DTD/svg11.dtd">
<svg version="1.1" id="Layer_1" xmlns="http://www.w3.org/2000/svg" xmlns:xlink="http://www.w3.org/1999/xlink" x="0px" y="0px"
	 width="24px" height="24px" viewBox="-3.179 -3.179 24 24" style="enable-background:new -3.179 -3.179 24 24;"
	 xml:space="preserve">
<style type="text/css">
<![CDATA[
	.st0{fill:none;}
]]>
</style>
<rect x="-3.708" y="-3.667" class="st0" width="24" height="24"/>
<g>
	<g>
		<path d="M5.192,0.533c-0.8,0-1.5,0.7-1.5,1.5c0,0.8,0.7,1.5,1.5,1.5c0.8,0,1.5-0.7,1.5-1.5C6.692,1.233,5.992,0.533,5.192,0.533z
			 M5.192,6.833c-0.8,0-1.5,0.7-1.5,1.5s0.7,1.5,1.5,1.5c0.8,0,1.5-0.7,1.5-1.5S5.992,6.833,5.192,6.833z M5.192,13.133
			c-0.8,0-1.5,0.7-1.5,1.5s0.7,1.5,1.5,1.5c0.8,0,1.5-0.7,1.5-1.5S5.992,13.133,5.192,13.133z M11.392,3.533
			c0.801,0,1.5-0.7,1.5-1.5c0-0.8-0.699-1.5-1.5-1.5c-0.8,0-1.5,0.7-1.5,1.5C9.892,2.833,10.592,3.533,11.392,3.533z M11.392,6.833
			c-0.8,0-1.5,0.7-1.5,1.5s0.7,1.5,1.5,1.5c0.801,0,1.5-0.7,1.5-1.5S12.192,6.833,11.392,6.833z M11.392,13.133
			c-0.8,0-1.5,0.7-1.5,1.5s0.7,1.5,1.5,1.5c0.801,0,1.5-0.7,1.5-1.5S12.192,13.133,11.392,13.133z"/>
	</g>
</g>
</svg>
