<?xml version="1.0" encoding="utf-8"?>
<!-- Generator: Adobe Illustrator 13.0.0, SVG Export Plug-In . SVG Version: 6.00 Build 14948)  -->
<!DOCTYPE svg PUBLIC "-//W3C//DTD SVG 1.1//EN" "http://www.w3.org/Graphics/SVG/1.1/DTD/svg11.dtd">
<svg version="1.1" id="Layer_1" xmlns="http://www.w3.org/2000/svg" xmlns:xlink="http://www.w3.org/1999/xlink" x="0px" y="0px"
	 width="24px" height="24px" viewBox="-3.35 -2.316 24 24" style="enable-background:new -3.35 -2.316 24 24;" xml:space="preserve"
	>
<style type="text/css">
<![CDATA[
	.st0{fill:none;}
]]>
</style>
<path d="M16.113,11.5c-0.81-0.469-1.823-0.284-2.43,0.384l-1.765-1.012V7.472l1.76-1.02c0.376,0.41,0.898,0.643,1.44,0.643
	c0.33,0,0.667-0.084,0.973-0.261c0.932-0.54,1.254-1.739,0.715-2.671c-0.261-0.454-0.683-0.777-1.189-0.911
	c-0.5-0.138-1.028-0.064-1.481,0.195c-0.812,0.469-1.159,1.435-0.882,2.295l-1.335,0.775V5.801c0-0.229-0.185-0.414-0.413-0.414
	H8.54V3.039c0.881-0.189,1.542-0.972,1.542-1.908c0-1.078-0.875-1.955-1.954-1.955c-1.078,0-1.954,0.877-1.954,1.955
	c0,0.936,0.661,1.719,1.542,1.91v2.346h-2.98c-0.229,0-0.414,0.187-0.414,0.414v0.711L3.024,5.769
	C3.296,4.914,2.95,3.95,2.141,3.485c-0.932-0.539-2.131-0.22-2.67,0.713C-1.068,5.132-0.747,6.331,0.187,6.87
	C0.494,7.048,0.83,7.133,1.161,7.133c0.544,0,1.068-0.238,1.444-0.653L4.32,7.464v3.467l-1.692,0.984
	c-0.25-0.277-0.57-0.474-0.937-0.574c-0.505-0.134-1.032-0.065-1.483,0.194c-0.452,0.261-0.775,0.684-0.911,1.188
	c-0.135,0.503-0.065,1.028,0.195,1.481c0.261,0.453,0.684,0.775,1.188,0.912c0.167,0.045,0.338,0.066,0.507,0.066
	c0.339,0,0.673-0.089,0.974-0.263c0.453-0.259,0.776-0.682,0.913-1.187c0.099-0.367,0.085-0.752-0.031-1.105l1.276-0.742v0.686
	c0,0.23,0.186,0.415,0.413,0.415h2.981v2.355c-0.858,0.206-1.5,0.975-1.5,1.896c0,1.077,0.877,1.954,1.955,1.954
	c1.077,0,1.956-0.877,1.956-1.954c0-0.953-0.686-1.744-1.586-1.918v-2.335h2.966c0.23,0,0.411-0.185,0.411-0.413v-0.748l1.357,0.776
	c-0.272,0.854,0.075,1.817,0.883,2.283c0.309,0.178,0.643,0.263,0.974,0.263c0.679,0,1.338-0.352,1.698-0.978
	C17.368,13.239,17.048,12.04,16.113,11.5"/>
<rect x="-3.85" y="-2.816" class="st0" width="24" height="24"/>
</svg>
