<?xml version="1.0" encoding="utf-8"?>
<!-- Generator: Adobe Illustrator 13.0.0, SVG Export Plug-In . SVG Version: 6.00 Build 14948)  -->
<!DOCTYPE svg PUBLIC "-//W3C//DTD SVG 1.1//EN" "http://www.w3.org/Graphics/SVG/1.1/DTD/svg11.dtd">
<svg version="1.1" id="Layer_1" xmlns="http://www.w3.org/2000/svg" xmlns:xlink="http://www.w3.org/1999/xlink" x="0px" y="0px"
	 width="24px" height="24px" viewBox="-2.281 -2.28 24 24" style="enable-background:new -2.281 -2.28 24 24;" xml:space="preserve"
	>
<style type="text/css">
<![CDATA[
	.st0{fill:none;}
]]>
</style>
<g>
	<g>
		<path d="M9.22-0.742c-5.494,0-9.962,4.47-9.962,9.963c0,5.492,4.469,9.962,9.962,9.962c5.492,0,9.962-4.47,9.962-9.962
			C19.182,3.728,14.734-0.742,9.22-0.742z M14.117,13.157l-1.045,1.044l-3.587-3.588l-3.587,3.588l-1.045-1.044L8.44,9.569
			L4.853,5.982l1.045-1.045l3.587,3.588l3.587-3.588l1.045,1.046L10.532,9.57L14.117,13.157z"/>
	</g>
</g>
<rect x="-2.781" y="-2.78" class="st0" width="24" height="24"/>
</svg>
