<?xml version="1.0" encoding="utf-8"?>
<!-- Generator: Adobe Illustrator 13.0.0, SVG Export Plug-In . SVG Version: 6.00 Build 14948)  -->
<!DOCTYPE svg PUBLIC "-//W3C//DTD SVG 1.1//EN" "http://www.w3.org/Graphics/SVG/1.1/DTD/svg11.dtd">
<svg version="1.1" id="Layer_1" xmlns="http://www.w3.org/2000/svg" xmlns:xlink="http://www.w3.org/1999/xlink" x="0px" y="0px"
	 width="24px" height="24px" viewBox="-2 -2 24 24" style="enable-background:new -2 -2 24 24;" xml:space="preserve">
<style type="text/css">
<![CDATA[
	.st0{fill:none;}
]]>
</style>
<path d="M16.463,2.063h-1.631V0.52c0-0.599-0.487-1.084-1.086-1.084c-0.601,0-1.085,0.484-1.085,1.084v1.543H6.229V0.521
	c0-0.6-0.485-1.085-1.085-1.085c-0.598,0-1.084,0.484-1.084,1.085v1.542h-1.52c-1.662,0-3.015,1.354-3.015,2.673v11.473
	c0,2.003,1.352,3.356,3.015,3.356h13.92c1.661,0,3.013-1.354,3.013-3.356V4.736C19.474,3.417,18.122,2.063,16.463,2.063z
	 M17.813,16.262c0,1.016-0.825,1.842-1.845,1.842H2.895c-1.018,0-1.843-0.826-1.843-1.842V8.855h16.762V16.262z M15.789,12.415
	h-3.616v3.615h3.613v-3.615H15.789z"/>
<rect x="-2.5" y="-2.5" class="st0" width="24" height="24"/>
</svg>
