<?xml version="1.0" encoding="utf-8"?>
<!-- Generator: Adobe Illustrator 13.0.0, SVG Export Plug-In . SVG Version: 6.00 Build 14948)  -->
<!DOCTYPE svg PUBLIC "-//W3C//DTD SVG 1.1//EN" "http://www.w3.org/Graphics/SVG/1.1/DTD/svg11.dtd">
<svg version="1.1" id="Layer_1" xmlns="http://www.w3.org/2000/svg" xmlns:xlink="http://www.w3.org/1999/xlink" x="0px" y="0px"
	 width="26.915px" height="26.915px" viewBox="0 0 26.915 26.915" style="enable-background:new 0 0 26.915 26.915;"
	 xml:space="preserve">
<style type="text/css">
<![CDATA[
	.st0{fill:none;}
]]>
</style>
<g>
	<path d="M15.251,0.975l-3.94,3.938c0.738-0.057,1.48-0.024,2.212,0.098c0.002,0.001,0.006,0.001,0.012,0.003
		c0.731,0.123,1.448,0.337,2.136,0.64l2.129-2.13c1.27-1.264,3.319-1.264,4.589,0c1.265,1.271,1.265,3.32,0,4.589l-6.203,6.205
		c-1,0.998-2.484,1.203-3.69,0.631c-0.076-0.039-0.151-0.078-0.225-0.117c-0.012-0.01-0.024-0.018-0.036-0.023
		c-0.064-0.035-0.127-0.076-0.188-0.119c-0.032-0.021-0.063-0.045-0.093-0.066c-0.045-0.033-0.089-0.066-0.133-0.102
		c-0.076-0.066-0.152-0.131-0.225-0.201c-0.066-0.07-0.132-0.141-0.193-0.213c-0.021-0.025-0.039-0.053-0.06-0.078
		c-0.037-0.049-0.075-0.096-0.11-0.146c-0.022-0.03-0.04-0.063-0.059-0.096c-0.03-0.044-0.063-0.093-0.088-0.14
		c-0.019-0.033-0.034-0.065-0.052-0.098c-0.027-0.054-0.057-0.107-0.082-0.16l-2.626,2.627c0.006,0.01,0.013,0.018,0.019,0.023
		l-0.001,0.002c0.152,0.207,0.315,0.408,0.492,0.602c0.006,0.006,0.012,0.014,0.019,0.021c0.064,0.068,0.128,0.135,0.194,0.201
		c0.075,0.076,0.152,0.148,0.23,0.217c0.029,0.029,0.059,0.057,0.089,0.08c0.046,0.043,0.093,0.084,0.143,0.121
		c0.038,0.033,0.077,0.066,0.115,0.096c0.039,0.031,0.078,0.063,0.116,0.092c2.688,2.051,6.539,1.85,8.996-0.605l6.203-6.202
		c2.676-2.676,2.675-7.013,0-9.687C22.264-1.7,17.927-1.699,15.251,0.975z"/>
	<path d="M10.243,20.26l-2.13,2.131c-1.269,1.264-3.32,1.264-4.589,0c-1.264-1.27-1.264-3.32,0-4.59l6.204-6.204
		c1.269-1.265,3.32-1.265,4.59,0c0.261,0.261,0.463,0.557,0.617,0.87l2.619-2.62c-0.205-0.281-0.433-0.546-0.687-0.801
		c-2.676-2.674-7.011-2.674-9.689,0l-6.203,6.206c-2.675,2.676-2.675,7.01,0,9.688c2.676,2.674,7.011,2.676,9.689,0l3.938-3.938
		C13.123,21.118,11.621,20.87,10.243,20.26z"/>
</g>
<rect x="-2.042" y="-2.042" class="st0" width="30" height="30"/>
</svg>
