<?xml version="1.0" encoding="utf-8"?>
<!-- Generator: Adobe Illustrator 13.0.0, SVG Export Plug-In . SVG Version: 6.00 Build 14948)  -->
<!DOCTYPE svg PUBLIC "-//W3C//DTD SVG 1.1//EN" "http://www.w3.org/Graphics/SVG/1.1/DTD/svg11.dtd">
<svg version="1.1" id="Layer_1" xmlns="http://www.w3.org/2000/svg" xmlns:xlink="http://www.w3.org/1999/xlink" x="0px" y="0px"
	 width="24px" height="24px" viewBox="-3 -3 24 24" style="enable-background:new -3 -3 24 24;" xml:space="preserve">
<style type="text/css">
<![CDATA[
	.st0{fill:none;}
]]>
</style>
<g>
	<path d="M-1.272,16.698c-0.047-0.526-0.067-1.032-0.067-1.519l0,0C-1.329,6.055,6.284,3.732,8.916,3.234l0,0v-3.959l9.787,7.842
		l-9.787,7.809v-3.879c-4.987,0.155-7.661,3.317-8.723,4.928l0,0c-0.358,0.547-0.511,0.887-0.513,0.889l0,0l-0.787,1.723
		L-1.272,16.698L-1.272,16.698z M9.917,4.083L9.495,4.151c-2.006,0.345-9.729,2.087-9.833,10.83l0,0
		c1.361-1.89,4.372-4.931,9.642-4.942l0,0c0.026,0,0.074,0,0.139,0.004l0,0l0.474,0.021v2.783l7.187-5.731L9.918,1.358L9.917,4.083
		L9.917,4.083z"/>
</g>
<rect x="-3.468" y="-3.514" class="st0" width="24" height="24"/>
</svg>
