<?xml version="1.0" encoding="utf-8"?>
<!-- Generator: Adobe Illustrator 13.0.0, SVG Export Plug-In . SVG Version: 6.00 Build 14948)  -->
<!DOCTYPE svg PUBLIC "-//W3C//DTD SVG 1.1//EN" "http://www.w3.org/Graphics/SVG/1.1/DTD/svg11.dtd">
<svg version="1.1" id="Layer_1" xmlns="http://www.w3.org/2000/svg" xmlns:xlink="http://www.w3.org/1999/xlink" x="0px" y="0px"
	 width="24px" height="24px" viewBox="0 0 24 24" style="enable-background:new 0 0 24 24;" xml:space="preserve">
<style type="text/css">
<![CDATA[
	.st0{fill:none;}
]]>
</style>
<rect x="-0.5" y="-0.5" class="st0" width="24" height="24"/>
<path d="M18.548,6.562l-0.262-0.266l-1.451,1.319l0.264,0.263c1.188,1.315,1.844,3.029,1.844,4.743c0,1.053-0.131,1.973-0.524,2.896
	c-1.188,2.766-3.953,4.479-6.851,4.479c-1.055,0-1.974-0.133-2.896-0.529c-2.768-1.184-4.479-3.951-4.479-6.848
	c0-1.055,0.132-1.975,0.525-2.897c1.188-2.767,3.953-4.479,6.85-4.479c0.133,0,0.133,0,0.133,0v1.976l4.349-3.028l-4.35-3.031v1.978
	c-0.132,0-0.132,0-0.132,0c-3.687,0-7.112,2.238-8.561,5.795c-0.529,1.184-0.791,2.372-0.793,3.557c0,3.555,2.107,7.113,5.666,8.559
	c1.188,0.527,2.371,0.791,3.557,0.791c3.558,0,7.113-2.105,8.562-5.666c0.524-1.051,0.789-2.369,0.789-3.553
	C20.786,10.379,19.997,8.271,18.548,6.562z M9.718,16.178v-0.133H9.72V9.458L7.084,9.722v1.055h1.315v5.401H9.718z M11.695,9.985
	c-0.395,0.394-0.659,1.053-0.659,1.844v1.844c0,0.789,0.267,1.316,0.659,1.845c0.396,0.396,0.921,0.657,1.58,0.657
	c0.66,0,1.187-0.262,1.582-0.657c0.396-0.396,0.658-1.056,0.658-1.845V11.83c0-0.792-0.264-1.317-0.658-1.844
	c-0.396-0.395-0.922-0.659-1.582-0.659C12.618,9.327,12.091,9.59,11.695,9.985z M13.935,10.907c0.131,0.264,0.267,0.528,0.267,0.923
	v2.105c0,0.396-0.136,0.791-0.267,0.924c-0.131,0.263-0.395,0.396-0.658,0.396c-0.262,0-0.526-0.133-0.657-0.396
	c-0.13-0.267-0.263-0.528-0.263-0.924V11.83c0-0.396,0.134-0.792,0.263-0.923c0.133-0.263,0.396-0.395,0.657-0.395
	C13.54,10.512,13.804,10.644,13.935,10.907z"/>
</svg>
