<?xml version="1.0" encoding="utf-8"?>
<!-- Generator: Adobe Illustrator 13.0.0, SVG Export Plug-In . SVG Version: 6.00 Build 14948)  -->
<!DOCTYPE svg PUBLIC "-//W3C//DTD SVG 1.1//EN" "http://www.w3.org/Graphics/SVG/1.1/DTD/svg11.dtd">
<svg version="1.1" id="Layer_1" xmlns="http://www.w3.org/2000/svg" xmlns:xlink="http://www.w3.org/1999/xlink" x="0px" y="0px"
	 width="24px" height="24px" viewBox="-3.179 -3.179 24 24" style="enable-background:new -3.179 -3.179 24 24;"
	 xml:space="preserve">
<style type="text/css">
<![CDATA[
	.st0{fill:none;}
]]>
</style>
<rect x="-3.679" y="-3.68" class="st0" width="24" height="24"/>
<path d="M17.061,2.374h-1.104v-0.99c0-0.695-0.541-1.235-1.234-1.235H-0.399c-0.694,0-1.234,0.54-1.234,1.235v11.802
	c0,0.693,0.54,1.234,1.234,1.234h1.104v0.991c0,0.693,0.541,1.233,1.234,1.233h15.121c0.242,0,0.453-0.084,0.642-0.198h0.215v-0.145
	c0.232-0.223,0.378-0.534,0.378-0.891V3.609C18.295,2.915,17.756,2.374,17.061,2.374z M0.706,3.609v9.73h-1.105
	c-0.077,0-0.231-0.076-0.231-0.23V1.307c0-0.077,0.078-0.232,0.231-0.232h15.122c0.076,0,0.23,0.078,0.23,0.232v1.067H1.94
	C1.246,2.374,0.706,2.915,0.706,3.609z M17.292,10.025l-2.877-4.411l-4.844,5.866L6.685,9.791l-4.977,3.577V3.532
	c0-0.077,0.078-0.232,0.23-0.232h15.122c0.078,0,0.231,0.078,0.231,0.232V10.025z M5.474,4.553c-1.233,0-2.238,1.003-2.238,2.238
	c0,1.234,1.004,2.238,2.238,2.238c1.235,0,2.237-1.003,2.237-2.238C7.711,5.556,6.708,4.553,5.474,4.553z"/>
</svg>
