<?xml version="1.0" encoding="utf-8"?>
<!-- Generator: Adobe Illustrator 13.0.0, SVG Export Plug-In . SVG Version: 6.00 Build 14948)  -->
<!DOCTYPE svg PUBLIC "-//W3C//DTD SVG 1.1//EN" "http://www.w3.org/Graphics/SVG/1.1/DTD/svg11.dtd">
<svg version="1.1" id="Layer_1" xmlns="http://www.w3.org/2000/svg" xmlns:xlink="http://www.w3.org/1999/xlink" x="0px" y="0px"
	 width="24px" height="24px" viewBox="-4.719 -4.719 24 24" style="enable-background:new -4.719 -4.719 24 24;"
	 xml:space="preserve">
<style type="text/css">
<![CDATA[
	.st0{fill:none;}
]]>
</style>
<path d="M6.784-3.203c-5.516,0-9.986,4.471-9.986,9.985c0,5.514,4.471,9.983,9.986,9.983c5.514,0,9.98-4.469,9.98-9.982
	C16.767,1.269,12.298-3.203,6.784-3.203z M6.784,14.983c-4.533-0.006-8.197-3.672-8.2-8.199c0.004-4.531,3.671-8.196,8.2-8.205
	c4.528,0.01,8.191,3.676,8.2,8.205C14.977,11.31,11.313,14.977,6.784,14.983z M5.717,12.841h2.258V4.307H5.717V12.841z M5.717,3.15
	h2.258V1.059H5.717V3.15z"/>
<rect x="-5.219" y="-5.219" class="st0" width="24" height="24"/>
</svg>
