<?xml version="1.0" encoding="utf-8"?>
<!-- Generator: Adobe Illustrator 13.0.0, SVG Export Plug-In . SVG Version: 6.00 Build 14948)  -->
<!DOCTYPE svg PUBLIC "-//W3C//DTD SVG 1.1//EN" "http://www.w3.org/Graphics/SVG/1.1/DTD/svg11.dtd">
<svg version="1.1" id="Layer_1" xmlns="http://www.w3.org/2000/svg" xmlns:xlink="http://www.w3.org/1999/xlink" x="0px" y="0px"
	 width="24px" height="24px" viewBox="-2 -2 24 24" style="enable-background:new -2 -2 24 24;" xml:space="preserve">
<style type="text/css">
<![CDATA[
	.st0{fill:none;}
]]>
</style>
<path d="M12.096,5.782c-0.728,0-1.32,0.591-1.32,1.319c0,0.727,0.591,1.319,1.32,1.319c0.729,0,1.32-0.591,1.32-1.319
	C13.416,6.374,12.827,5.782,12.096,5.782z M10.533-0.482c0,0-7.778-0.546-8.435,7.483l-1.891,3.221
	c-0.354,0.562-0.25,0.872-0.25,0.872c0.063,0.563,0.644,0.688,0.644,0.688l1.516,0.478v3.386c0,0,0.021,0.936,1.103,1.6
	c0,0,0.725,0.5,1.494,0.46c0.506,0.047,1.131,0,2.057,0v1.786h9.32v-2.328c0,0,0.012-1.477,0.635-2.828c0,0,0.25-0.557,0.854-1.535
	c0,0,1.558-1.934,1.474-5.3C19.056,7.5,19.096-0.379,10.533-0.482z M15.42,7.102c0,0.229-0.024,0.456-0.07,0.673l1.107,0.779
	l-0.922,1.601l-1.23-0.573c-0.336,0.301-0.732,0.532-1.166,0.674l-0.124,1.353h-1.842l-0.122-1.353
	c-0.437-0.143-0.831-0.374-1.167-0.674l-1.229,0.573L7.732,8.554l1.108-0.78C8.796,7.558,8.772,7.33,8.772,7.102
	c0-0.233,0.024-0.456,0.069-0.677L7.732,5.647L8.655,4.05l1.228,0.566c0.338-0.298,0.731-0.527,1.168-0.672l0.121-1.349h1.843
	l0.122,1.349c0.436,0.145,0.832,0.375,1.168,0.672l1.23-0.566l0.921,1.598L15.35,6.424C15.396,6.646,15.42,6.867,15.42,7.102z"/>
<rect x="-2.5" y="-2.5" class="st0" width="24" height="24"/>
</svg>
