<?xml version="1.0" encoding="utf-8"?>
<!-- Generator: Adobe Illustrator 13.0.0, SVG Export Plug-In . SVG Version: 6.00 Build 14948)  -->
<!DOCTYPE svg PUBLIC "-//W3C//DTD SVG 1.1//EN" "http://www.w3.org/Graphics/SVG/1.1/DTD/svg11.dtd">
<svg version="1.1" id="Layer_1" xmlns="http://www.w3.org/2000/svg" xmlns:xlink="http://www.w3.org/1999/xlink" x="0px" y="0px"
	 width="24px" height="24px" viewBox="-3.179 -3.179 24 24" style="enable-background:new -3.179 -3.179 24 24;"
	 xml:space="preserve">
<style type="text/css">
<![CDATA[
	.st0{fill:none;}
	.st1{fill:#010101;}
]]>
</style>
<path class="st1" d="M8.319-1.661c-5.511,0-9.98,4.471-9.98,9.982c0,5.513,4.47,9.982,9.98,9.982c5.511,0,9.984-4.469,9.984-9.982
	C18.303,2.809,13.832-1.661,8.319-1.661 M6.793,5.111l2.273,2.306L11.17,5.37l-1.123-1.108l4.041-0.779L13.36,7.531l-1.141-1.127
	L9.045,9.487L6.781,7.194L4.572,9.385L3.535,8.34L6.793,5.111z M14.356,13.158H2.283v-1.473h12.072V13.158z"/>
<rect x="-3.679" y="-3.679" class="st0" width="24" height="24"/>
</svg>
