<?xml version="1.0" encoding="utf-8"?>
<!-- Generator: Adobe Illustrator 13.0.0, SVG Export Plug-In . SVG Version: 6.00 Build 14948)  -->
<!DOCTYPE svg PUBLIC "-//W3C//DTD SVG 1.1//EN" "http://www.w3.org/Graphics/SVG/1.1/DTD/svg11.dtd">
<svg version="1.1" id="Layer_1" xmlns="http://www.w3.org/2000/svg" xmlns:xlink="http://www.w3.org/1999/xlink" x="0px" y="0px"
	 width="24px" height="24px" viewBox="-2.981 -3.227 24 24" style="enable-background:new -2.981 -3.227 24 24;"
	 xml:space="preserve">
<style type="text/css">
<![CDATA[
	.st0{fill:none;}
]]>
</style>
<g>
	<path d="M4.735,8.766v8.719c0,0,5.666,0.492,7.095,0.492c0,0,5.467,0.321,5.244-2.783c0,0-0.099-0.319,0.173-0.59
		c0,0,1.477-1.035,0.589-2.512c0,0-0.071-0.198,0.124-0.493c0,0,1.258-1.256-0.051-2.487c0,0-0.146-0.198-0.051-0.396
		c0,0,0.813-1.624-0.714-2.387c0,0-1.697-1.083-5.589,0.074c0,0-0.469,0.024-0.344-0.638c0,0-0.125-0.79,0.763-3.868
		c0,0,0.568-1.377-0.618-2.708c0,0-1.428-1.329-2.045-0.123c0,0-0.074,0.271-0.023,0.985c0,0,0.123,0.492-0.493,1.896
		c0,0-1.354,3.08-2.488,4.408C6.311,6.354,4.783,7.536,4.735,8.766z"/>
	<rect x="-1.467" y="8.373" width="4.704" height="9.32"/>
</g>
<rect x="-3.481" y="-3.727" class="st0" width="24" height="24"/>
</svg>
