<?xml version="1.0" encoding="utf-8"?>
<!-- Generator: Adobe Illustrator 13.0.0, SVG Export Plug-In . SVG Version: 6.00 Build 14948)  -->
<!DOCTYPE svg PUBLIC "-//W3C//DTD SVG 1.1//EN" "http://www.w3.org/Graphics/SVG/1.1/DTD/svg11.dtd">
<svg version="1.1" id="Layer_1" xmlns="http://www.w3.org/2000/svg" xmlns:xlink="http://www.w3.org/1999/xlink" x="0px" y="0px"
	 width="24px" height="24px" viewBox="-2.881 -6.082 24 24" style="enable-background:new -2.881 -6.082 24 24;"
	 xml:space="preserve">
<style type="text/css">
<![CDATA[
	.st0{fill:none;}
]]>
</style>
<path d="M17.372,0.926c-0.745,0-1.345,0.605-1.345,1.346c0,0.45,0.221,0.847,0.563,1.09l-1.556,1.555
	c-0.784,0.786-2.069,0.786-2.856,0l-2.74-3.578c0.371-0.24,0.617-0.656,0.617-1.128c0-0.742-0.602-1.344-1.345-1.344
	c-0.742,0-1.344,0.602-1.344,1.345c0,0.43,0.203,0.812,0.517,1.057L5.092,4.918c-0.787,0.787-2.072,0.787-2.857,0L0.666,3.35
	C0.996,3.105,1.21,2.714,1.21,2.272c0-0.741-0.601-1.346-1.345-1.346c-0.741,0-1.343,0.605-1.343,1.346
	c0,0.696,0.533,1.271,1.211,1.337l1.176,4.973c0.065,0.226,0.13,0.285,0.288,0.285h14.974c0.157,0,0.26-0.126,0.288-0.286
	l1.155-4.989c0.626-0.114,1.101-0.664,1.101-1.319C18.715,1.531,18.114,0.926,17.372,0.926z M15.949,10.092H1.289
	c-0.164,0-0.3,0.135-0.3,0.3v1.279c0,0.163,0.136,0.299,0.3,0.299h14.66c0.165,0,0.3-0.134,0.3-0.299v-1.279
	C16.251,10.227,16.116,10.092,15.949,10.092z"/>
<rect x="-3.381" y="-6.582" class="st0" width="24" height="24"/>
</svg>
