<?xml version="1.0" encoding="utf-8"?>
<!-- Generator: Adobe Illustrator 13.0.0, SVG Export Plug-In . SVG Version: 6.00 Build 14948)  -->
<!DOCTYPE svg PUBLIC "-//W3C//DTD SVG 1.1//EN" "http://www.w3.org/Graphics/SVG/1.1/DTD/svg11.dtd">
<svg version="1.1" id="Layer_1" xmlns="http://www.w3.org/2000/svg" xmlns:xlink="http://www.w3.org/1999/xlink" x="0px" y="0px"
	 width="24px" height="24px" viewBox="-3.589 -2.157 24 24" style="enable-background:new -3.589 -2.157 24 24;"
	 xml:space="preserve">
<style type="text/css">
<![CDATA[
	.st0{fill:none;}
]]>
</style>
<path d="M15.494,13.95c-1.278-1.28-1.532-1.905-1.75-3.666c-0.302-2.457-0.673-3.869-0.673-3.869
	c-0.551-1.785-2.028-3.15-3.863-3.578c0.424-0.366,0.697-0.899,0.697-1.502C9.904,0.237,9.01-0.658,7.911-0.658
	c-1.099,0-1.992,0.895-1.992,1.994c0,0.603,0.274,1.135,0.697,1.502C4.78,3.264,3.303,4.629,2.75,6.413c0,0-0.37,1.413-0.673,3.871
	c-0.217,1.761-0.47,2.387-1.749,3.665c0,0-1.379,1.144-0.842,2.59H5.37c-0.007,0.079-0.025,0.157-0.025,0.24
	c0,1.415,1.152,2.565,2.567,2.565c1.414,0,2.567-1.151,2.567-2.565c0-0.08-0.018-0.161-0.025-0.24h5.883
	C16.874,15.094,15.494,13.95,15.494,13.95 M7.911,0.636c0.384,0,0.699,0.313,0.699,0.699c0,0.384-0.314,0.698-0.699,0.698
	S7.213,1.72,7.213,1.335C7.213,0.948,7.527,0.636,7.911,0.636"/>
<rect x="-4.089" y="-2.657" class="st0" width="24" height="24"/>
</svg>
