<?xml version="1.0" encoding="utf-8"?>
<!-- Generator: Adobe Illustrator 13.0.0, SVG Export Plug-In . SVG Version: 6.00 Build 14948)  -->
<!DOCTYPE svg PUBLIC "-//W3C//DTD SVG 1.1//EN" "http://www.w3.org/Graphics/SVG/1.1/DTD/svg11.dtd">
<svg version="1.1" id="Layer_1"
	xmlns="http://www.w3.org/2000/svg"
	xmlns:xlink="http://www.w3.org/1999/xlink" x="0px" y="0px" width="100px" height="100px" viewBox="0 0 100 100" style="enable-background:new 0 0 100 100;" xml:space="preserve">
	<style type="text/css">
		<![CDATA[

]]>
	</style>
	<!-- <rect x="0.01" y="0.01" width="100" height="100"/> -->
	<path d="M49.954,1.755c-26.512,0.002-48,21.489-48.001,48.001C1.954,76.263,23.442,97.75,49.954,97.755
	c26.509-0.005,47.994-21.492,47.999-47.999C97.948,23.244,76.463,1.757,49.954,1.755z M80.455,80.257
	c-7.813,7.812-18.582,12.635-30.501,12.635c-11.922,0-22.69-4.823-30.505-12.635C11.64,72.443,6.815,61.673,6.815,49.756
	c0-11.922,4.824-22.69,12.634-30.505c7.814-7.81,18.583-12.634,30.505-12.634c11.919,0,22.688,4.824,30.501,12.634
	c7.812,7.814,12.635,18.583,12.635,30.505C93.09,61.673,88.267,72.443,80.455,80.257z M41.172,40.843
	c0-2.559-2.076-4.636-4.636-4.636c-2.561,0-4.636,2.077-4.636,4.636c0,2.56,2.075,4.637,4.636,4.637
	C39.096,45.479,41.172,43.402,41.172,40.843z M62.611,36.207c-2.561,0-4.637,2.077-4.637,4.636c0,2.56,2.076,4.637,4.637,4.637
	c2.56,0,4.636-2.077,4.636-4.637C67.247,38.284,65.171,36.207,62.611,36.207z M49.953,57.146
	c-6.852,0.039-12.039,6.029-12.051,13.063c0.012,7.034,5.199,13.025,12.051,13.063c6.849-0.037,12.037-6.028,12.05-13.063
	C61.99,63.175,56.802,57.185,49.953,57.146z M54.951,76.096c-1.339,1.47-3.083,2.313-4.998,2.315
	c-1.918-0.002-3.662-0.846-5.001-2.315c-1.33-1.469-2.19-3.547-2.19-5.887c0-2.342,0.86-4.42,2.19-5.889
	c1.339-1.47,3.083-2.312,5.001-2.313c1.915,0.002,3.659,0.844,4.998,2.313c1.331,1.469,2.19,3.547,2.19,5.889
	C57.142,72.549,56.282,74.627,54.951,76.096z M37.379,24.879c1.335,0.15,2.536-0.81,2.687-2.144
	c0.147-1.335-0.813-2.536-2.147-2.687c-0.587-0.064-1.173-0.097-1.754-0.097c-2.618-0.002-5.243,0.656-7.603,2.046
	c-3.019,1.77-5.196,4.5-6.415,7.616c-0.492,1.25,0.121,2.661,1.372,3.151c0.292,0.114,0.592,0.169,0.888,0.169
	c0.97,0,1.887-0.584,2.265-1.542c0.872-2.211,2.333-4.015,4.354-5.205c1.588-0.931,3.323-1.372,5.14-1.375
	C36.569,24.813,36.975,24.835,37.379,24.879z M77.442,29.615c-1.22-3.119-3.396-5.847-6.415-7.619
	c-2.36-1.387-4.987-2.045-7.605-2.045c-0.581,0.002-1.169,0.032-1.754,0.099c-1.335,0.15-2.294,1.354-2.144,2.688
	c0.149,1.333,1.353,2.293,2.688,2.143c0.398-0.046,0.805-0.069,1.21-0.069c1.817,0.005,3.557,0.446,5.143,1.376
	c2.021,1.19,3.483,2.993,4.354,5.205c0.376,0.958,1.294,1.543,2.265,1.543c0.295,0,0.595-0.054,0.887-0.168
	c1.249-0.49,1.865-1.902,1.375-3.151H77.442z"/>
</svg>
