<?xml version="1.0" encoding="utf-8"?>
<!-- Generator: Adobe Illustrator 13.0.0, SVG Export Plug-In . SVG Version: 6.00 Build 14948)  -->
<!DOCTYPE svg PUBLIC "-//W3C//DTD SVG 1.1//EN" "http://www.w3.org/Graphics/SVG/1.1/DTD/svg11.dtd">
<svg version="1.1" id="Layer_1" xmlns="http://www.w3.org/2000/svg" xmlns:xlink="http://www.w3.org/1999/xlink" x="0px" y="0px"
	 width="24px" height="24px" viewBox="0 0 24 24" style="enable-background:new 0 0 24 24;" xml:space="preserve">
<style type="text/css">
<![CDATA[
	.st0{fill:none;}
]]>
</style>
<rect x="-0.5" y="-0.5" class="st0" width="24" height="24"/>
<g>
	<g>
		<path d="M4.941,10.453c1.538,0,2.785-1.247,2.785-2.785c0-1.539-1.247-2.786-2.785-2.786S2.156,6.129,2.156,7.668
			C2.156,9.206,3.403,10.453,4.941,10.453z M4.941,10.751c-1.906,0-3.452,1.548-3.452,3.454v3.913h6.905v-3.913
			C8.395,12.299,6.849,10.751,4.941,10.751z M18.059,10.453c1.538,0,2.785-1.247,2.785-2.785c0-1.539-1.247-2.786-2.785-2.786
			c-1.541,0-2.787,1.247-2.787,2.786C15.271,9.206,16.518,10.453,18.059,10.453z M18.059,10.751c-1.91,0-3.454,1.548-3.454,3.454
			v3.913h6.906v-3.913C21.511,12.299,19.965,10.751,18.059,10.751z M11.269,8.501l-2.577,2.121l2.577,2.122v-1.176h2.503V9.677
			h-2.503V8.501z"/>
	</g>
</g>
</svg>
