<?xml version="1.0" encoding="utf-8"?>
<!-- Generator: Adobe Illustrator 13.0.0, SVG Export Plug-In . SVG Version: 6.00 Build 14948)  -->
<!DOCTYPE svg PUBLIC "-//W3C//DTD SVG 1.1//EN" "http://www.w3.org/Graphics/SVG/1.1/DTD/svg11.dtd">
<svg version="1.1" id="Layer_1" xmlns="http://www.w3.org/2000/svg" xmlns:xlink="http://www.w3.org/1999/xlink" x="0px" y="0px"
	 width="24px" height="24px" viewBox="-3.093 -5.927 24 24" style="enable-background:new -3.093 -5.927 24 24;"
	 xml:space="preserve">
<style type="text/css">
<![CDATA[
	.st0{fill:none;}
]]>
</style>
<g>
	<path d="M11.398,3.04c0,1.683-1.363,3.045-3.044,3.045c-1.683,0-3.048-1.362-3.048-3.045c0-1.684,1.364-3.047,3.048-3.047
		C10.036-0.007,11.398,1.357,11.398,3.04"/>
	<path d="M13.081,12.412v-1.816c0-1.965-1.608-4.028-3.572-4.028H7.2c-1.965,0-3.572,2.063-3.572,4.028v1.816H13.081z"/>
	<path d="M14.864,5.309h-2.307c-0.382,0-0.744,0.077-1.091,0.189c-0.117,0.149-0.234,0.299-0.372,0.43
		c1.71,0.645,2.933,2.737,2.933,4.668v0.553h4.412V8.881C18.437,6.916,16.831,5.309,14.864,5.309"/>
	<path d="M13.711-1.267c-1.095,0-2.048,0.583-2.584,1.447c0.75,0.728,1.218,1.738,1.218,2.859c0,0.466-0.097,0.902-0.245,1.316
		c0.468,0.293,1.019,0.469,1.611,0.469c1.682,0,3.046-1.363,3.046-3.046C16.757,0.098,15.392-1.267,13.711-1.267"/>
	<path d="M2.68,10.596c0-1.932,1.225-4.023,2.933-4.667C5.46,5.783,5.328,5.619,5.2,5.453C4.898,5.369,4.586,5.309,4.257,5.309
		h-2.31c-1.964,0-3.572,1.607-3.572,3.57v2.27H2.68V10.596z"/>
	<path d="M4.624,4.404C4.466,3.977,4.362,3.522,4.362,3.039c0-1.154,0.503-2.189,1.29-2.918c-0.543-0.833-1.481-1.388-2.55-1.388
		c-1.683,0-3.047,1.365-3.047,3.046c0,1.683,1.364,3.046,3.047,3.046C3.659,4.825,4.176,4.665,4.624,4.404"/>
</g>
<rect x="-3.593" y="-6.427" class="st0" width="24" height="24"/>
</svg>
