<?xml version="1.0" encoding="utf-8"?>
<!-- Generator: Adobe Illustrator 13.0.0, SVG Export Plug-In . SVG Version: 6.00 Build 14948)  -->
<!DOCTYPE svg PUBLIC "-//W3C//DTD SVG 1.1//EN" "http://www.w3.org/Graphics/SVG/1.1/DTD/svg11.dtd">
<svg version="1.1" id="Layer_1" xmlns="http://www.w3.org/2000/svg" xmlns:xlink="http://www.w3.org/1999/xlink" x="0px" y="0px"
	 width="24px" height="24px" viewBox="0 0 24 24" style="enable-background:new 0 0 24 24;" xml:space="preserve">
<style type="text/css">
<![CDATA[
	.st0{fill:none;}
]]>
</style>
<rect y="-0.013" class="st0" width="24" height="24"/>
<path d="M9.031,14.865l2.641,0.021l5.934-5.965l-2.65-2.604l-5.923,5.959L9.031,14.865L9.031,14.865z M19.887,6.604l-2.645-2.609
	l-1.496,1.518l2.649,2.604L19.887,6.604z M18.027,17.833c0,0.255-0.205,0.461-0.457,0.461H6.153c-0.252,0-0.458-0.206-0.458-0.461
	V6.419c0-0.255,0.203-0.461,0.458-0.461h7.408V4.4H6.153c-1.114,0.004-2.017,0.901-2.02,2.02v11.414c0,1.115,0.902,2.021,2.02,2.021
	H17.57c1.116,0,2.02-0.906,2.02-2.021v-7.502h-1.563V17.833z"/>
</svg>
