<?xml version="1.0" encoding="utf-8"?>
<!-- Generator: Adobe Illustrator 13.0.0, SVG Export Plug-In . SVG Version: 6.00 Build 14948)  -->
<!DOCTYPE svg PUBLIC "-//W3C//DTD SVG 1.1//EN" "http://www.w3.org/Graphics/SVG/1.1/DTD/svg11.dtd">
<svg version="1.1" id="Layer_1" xmlns="http://www.w3.org/2000/svg" xmlns:xlink="http://www.w3.org/1999/xlink" x="0px" y="0px"
	 width="456px" height="204px" viewBox="0 0 456 204" style="enable-background:new 0 0 456 204;" xml:space="preserve">
<style type="text/css">
<![CDATA[
	.st0{fill:#BD2F2C;}
	.st1{fill:#FF9E1A;}
	.st2{fill:#0056B8;}
]]>
</style>
<g>
	<path class="st1" d="M116.704,92.422c-10.44,0.028-20.044-3.249-26.886-9.979l0,0c-6.871-6.707-10.416-16.416-10.375-27.281l0,0
		v-21.63h16l-0.002,21.63c0.043,7.64,2.257,13.132,5.583,16.427l0,0c3.351,3.273,8.377,5.94,15.68,5.968l0,0
		c7.533-0.036,12.49-2.778,15.802-6.084l0,0c3.287-3.33,5.423-8.89,5.456-16.311l0,0v-21.63h0.002h15.999v21.63
		c0.033,10.583-3.328,20.222-10.107,27.021l0,0c-6.719,6.789-16.325,10.24-26.982,10.24l0,0
		C116.817,92.423,116.76,92.422,116.704,92.422L116.704,92.422z"/>
</g>
<g>
	<circle class="st0" cx="104.453" cy="14.417" r="6.417"/>
	<circle class="st0" cx="128.953" cy="14.417" r="6.417"/>
</g>
<path class="st0" d="M41.817,3.698H3.216V91h16.734V64.613h21.866c19.683,0,31.304-13.633,31.308-30.457
	C73.121,17.333,59.5,3.698,41.817,3.698z M42.101,50.032h-22.15V18.279H41.25c8.767,0.016,15.294,7.11,15.31,15.877
	C56.543,42.922,50.867,50.018,42.101,50.032z"/>
<path class="st0" d="M178.685,90.834V62.92h16.049l20.232,27.914h19.899L213.35,61.32c11.982-3.969,18.225-14.93,18.225-28.152
	c0-17.5-11.407-29.47-31.023-29.47H161.95v87.136H178.685z M178.685,18.373h21.299c9.851,0,15.253,4.961,15.253,14.795
	c0,8.48-5.637,15.063-14.402,15.077h-22.149V18.373z"/>
<path class="st0" d="M306.424,63.17c-5.049,8.502-14.036,14.164-24.288,14.164c-15.794,0-28.599-13.432-28.599-29.999
	c0-16.569,12.805-30.001,28.599-30.001c10.244,0,19.226,5.652,24.276,14.145l15.34-6.393c-7.807-13.637-22.558-22.841-39.482-22.841
	c-25.069,0-45.395,20.185-45.395,45.084c0,24.897,20.325,45.083,45.395,45.083c16.904,0,31.641-9.184,39.454-22.793L306.424,63.17z"
	/>
<polygon class="st0" points="389.834,3.667 389.834,41.667 346.167,41.667 346.167,3.667 329.667,3.667 329.667,91 346.167,91 
	346.167,55.834 389.834,55.834 389.834,91 406.334,91 406.334,3.667 "/>
<polygon class="st2" points="199.625,125.553 199.625,110.678 135.375,110.678 135.375,198.494 199.625,198.494 199.625,183.285 
	152,183.285 152,162.678 194.284,162.678 194.284,147.803 152,147.803 152,125.553 "/>
<path class="st2" d="M276.904,198.434l18.046,0.018L250.252,111h-1.616L204,198.369l18.087,0.016l7.222-14.135h40.346
	L276.904,198.434z M236.589,170l12.286-24.898l0.601-1.218l0.603,1.218L262.37,170H236.589z"/>
<polygon class="st2" points="446.166,95.25 430.083,95.75 429.833,96.056 434.25,98.806 403.997,148.217 382.083,111.167 
	362.583,111.167 395.583,164.843 395.583,198.5 412.5,198.5 412.5,164.498 448.833,106.918 453.083,109.584 453.583,109.5 "/>
<path class="st2" d="M351.25,134l9.25-13c0,0-12.5-12.75-36.75-11.25c0,0-29.75,1.625-29.125,25.875c0,0-0.25,9,4.971,14.419
	c3.108,3.663,8.114,7.17,16.154,9.331c0,0,11.25,2.625,20.5,4.125c0,0,6.107,1.271,9.445,4.701c1.523,1.566,2.053,3.229,1.896,6.049
	c0,0-0.092,4-4.303,6.869c-2.755,2.051-7.207,3.686-13.914,3.381c0,0-8.875,1.625-26.375-11.125l-9,13.5
	c0,0,14.375,14.125,37.625,13c0,0,32.75,1.125,33-26.125c0,0,1.875-20.625-23.125-25.625c0,0-14.5-3.125-19.125-4.5
	c0,0-12.25-2.125-10.875-10.25c0,0,1.75-9,16.875-8.5C328.375,124.875,338.375,124.25,351.25,134z"/>
</svg>
