<?xml version="1.0" encoding="utf-8"?>
<!-- Generator: Adobe Illustrator 13.0.0, SVG Export Plug-In . SVG Version: 6.00 Build 14948)  -->
<!DOCTYPE svg PUBLIC "-//W3C//DTD SVG 1.1//EN" "http://www.w3.org/Graphics/SVG/1.1/DTD/svg11.dtd">
<svg version="1.1" id="Layer_1" xmlns="http://www.w3.org/2000/svg" xmlns:xlink="http://www.w3.org/1999/xlink" x="0px" y="0px"
	 width="24px" height="24px" viewBox="-2 -2 24 24" style="enable-background:new -2 -2 24 24;" xml:space="preserve">
<style type="text/css">
<![CDATA[
	.st0{fill:none;}
]]>
</style>
<g>
	<g>
		<path d="M9.5-0.648c-5.504,0-9.966,4.051-9.966,9.052c0,1.918,0.662,3.695,1.781,5.159l-1.781,6.086l6.233-2.857
			c1.154,0.424,2.413,0.663,3.733,0.663c5.504,0,9.966-4.051,9.966-9.051C19.466,3.402,15.006-0.648,9.5-0.648z M13.876,14.721
			c-0.338-0.103-0.668-0.238-0.991-0.415c-0.07-0.035-0.565-0.365-1.486-0.982C10.673,13.64,9.869,13.8,8.989,13.8
			c-1.703,0-3.035-0.501-4-1.504c-0.963-1.001-1.446-2.408-1.446-4.223c0-1.807,0.483-3.212,1.451-4.215
			C5.959,2.852,7.272,2.35,8.928,2.35c1.642,0,2.943,0.502,3.903,1.508c0.962,1.003,1.443,2.408,1.443,4.215
			c0,0.958-0.135,1.801-0.399,2.524c-0.202,0.555-0.524,1.091-0.968,1.609c0.548,0.391,1.145,0.703,1.789,0.936L13.876,14.721z
			 M8.913,4.262c-0.911,0-1.648,0.315-2.215,0.95C6.132,5.848,5.848,6.8,5.848,8.073c0,1.295,0.284,2.265,0.849,2.906
			c0.567,0.643,1.284,0.962,2.149,0.962c0.322,0,0.627-0.053,0.915-0.159c-0.453-0.295-0.915-0.527-1.382-0.694l0.627-1.274
			c0.733,0.25,1.437,0.628,2.107,1.133c0.287-0.338,0.504-0.744,0.645-1.223c0.144-0.48,0.216-1.026,0.216-1.647
			c0-1.278-0.283-2.231-0.847-2.866C10.561,4.576,9.825,4.262,8.913,4.262z"/>
	</g>
</g>
<rect x="-2.5" y="-2.5" class="st0" width="24" height="24"/>
</svg>
