<?xml version="1.0" encoding="utf-8"?>
<!-- Generator: Adobe Illustrator 13.0.0, SVG Export Plug-In . SVG Version: 6.00 Build 14948)  -->
<!DOCTYPE svg PUBLIC "-//W3C//DTD SVG 1.1//EN" "http://www.w3.org/Graphics/SVG/1.1/DTD/svg11.dtd">
<svg version="1.1" id="Layer_1" xmlns="http://www.w3.org/2000/svg" xmlns:xlink="http://www.w3.org/1999/xlink" x="0px" y="0px"
	 width="24px" height="24px" viewBox="-3.027 -4.573 24 24" style="enable-background:new -3.027 -4.573 24 24;"
	 xml:space="preserve">
<style type="text/css">
<![CDATA[
	.st0{fill:none;}
]]>
</style>
<rect x="-3.527" y="-5.073" class="st0" width="24" height="24"/>
<path d="M16.466-0.835H0.423c-0.852,0-1.542,0.691-1.542,1.544v10.854c0,0.854,0.691,1.542,1.542,1.542h6.048V12.96l1.707,1.977
	v0.478c-0.006,0.376,0.125,0.709,0.358,0.9c0.228,0.189,0.463,0.208,0.578,0.208c0.016,0,0.026,0,0.026,0l4.969,0.002
	c0.628-0.004,1.967-0.485,1.971-2.059l0.001-1.359h0.385c0.852-0.002,1.541-0.691,1.541-1.543l0.002-10.856
	C18.007-0.145,17.317-0.835,16.466-0.835z M15.08,14.466c0,0.889-0.668,1.028-0.971,1.059l-4.924-0.002
	c-0.004-0.024-0.008-0.061-0.008-0.108v-0.663c0-0.121-0.043-0.238-0.121-0.327l-2.717-3.148c-0.076-0.09-0.111-0.193-0.111-0.302
	c0-0.132,0.054-0.261,0.163-0.354c0.09-0.078,0.193-0.113,0.305-0.113c0.131,0,0.261,0.054,0.355,0.165l1.296,1.563
	c0.134,0.163,0.354,0.222,0.553,0.15c0.2-0.07,0.332-0.259,0.332-0.469V6.843c0-0.191,0.156-0.348,0.345-0.348
	c0.193,0,0.348,0.154,0.348,0.348v2.75c0,0.148,0.064,0.286,0.177,0.383c0.115,0.094,0.261,0.133,0.407,0.109l0.035-0.006
	c0.222-0.039,0.391-0.22,0.412-0.446c0.016-0.173,0.165-0.313,0.346-0.313c0.179,0,0.325,0.136,0.343,0.306
	c0.029,0.253,0.243,0.444,0.498,0.444h0.029c0.253,0,0.467-0.191,0.496-0.442c0.021-0.175,0.166-0.309,0.345-0.309
	c0.182,0,0.327,0.14,0.342,0.319c0.017,0.218,0.177,0.401,0.391,0.45l0.035,0.006c0.146,0.035,0.303-0.002,0.422-0.097
	c0.117-0.095,0.185-0.239,0.185-0.391c0.003-0.193,0.157-0.348,0.351-0.348c0.188,0,0.345,0.156,0.347,0.348L15.08,14.466z
	 M9.576,5.496c-0.745,0-1.345,0.603-1.345,1.347v0.46H3.856c-0.177,0-0.317-0.142-0.319-0.316V3.881
	C3.54,3.707,3.68,3.564,3.856,3.563l8.992,0.002c0.175,0,0.316,0.142,0.318,0.317v3.105c-0.002,0.172-0.144,0.316-0.318,0.316
	h-1.925v-0.46C10.921,6.1,10.323,5.496,9.576,5.496z M16.507,11.563c0,0.023-0.019,0.043-0.041,0.043h-0.385l0.001-2
	c-0.002-0.745-0.604-1.346-1.347-1.348c-0.347,0.001-0.661,0.131-0.899,0.344c-0.228-0.178-0.514-0.285-0.825-0.285
	c-0.325,0-0.623,0.115-0.855,0.307c-0.232-0.191-0.53-0.307-0.855-0.307c-0.131,0-0.257,0.019-0.376,0.053v-0.07h1.925
	c0.728,0,1.316-0.588,1.316-1.316V3.881c0-0.728-0.589-1.318-1.316-1.318H3.856c-0.728,0-1.318,0.59-1.318,1.318v3.105
	c0,0.728,0.59,1.316,1.318,1.316h4.375v2.227l-0.416-0.502C7.521,9.681,7.108,9.504,6.695,9.506C6.359,9.504,6.014,9.622,5.738,9.86
	c-0.335,0.288-0.512,0.701-0.51,1.113c-0.001,0.216,0.066,0.43,0.165,0.633H0.423c-0.023,0-0.043-0.021-0.043-0.043V0.709
	c0-0.027,0.021-0.045,0.043-0.045h13.944v0h2.099c0.022,0,0.041,0.019,0.043,0.043L16.507,11.563z M5.327,4.698
	c-0.452,0-0.817,0.366-0.817,0.817c0,0.451,0.365,0.817,0.817,0.817s0.816-0.366,0.816-0.817C6.144,5.064,5.779,4.698,5.327,4.698z
	 M7.534,4.698c-0.451,0-0.817,0.366-0.817,0.817c0,0.451,0.367,0.817,0.817,0.817c0.452,0,0.817-0.366,0.817-0.817
	C8.351,5.064,7.985,4.698,7.534,4.698z"/>
</svg>
