<?xml version="1.0" encoding="utf-8"?>
<!-- Generator: Adobe Illustrator 13.0.0, SVG Export Plug-In . SVG Version: 6.00 Build 14948)  -->
<!DOCTYPE svg PUBLIC "-//W3C//DTD SVG 1.1//EN" "http://www.w3.org/Graphics/SVG/1.1/DTD/svg11.dtd">
<svg version="1.1" id="Layer_1" xmlns="http://www.w3.org/2000/svg" xmlns:xlink="http://www.w3.org/1999/xlink" x="0px" y="0px"
	 width="24px" height="24px" viewBox="-2 -2 24 24" style="enable-background:new -2 -2 24 24;" xml:space="preserve">
<style type="text/css">
<![CDATA[
	.st0{fill:none;}
]]>
</style>
<path d="M13.05,3.462L8.619,0.905L4.187,3.462l4.432,2.559L13.05,3.462z M3.091,9.608V7.976l-3.177,1.835l4.432,2.56l1.765-1.02
	L3.091,9.608z M6.864,11.785l-2.078,1.199v5.038l4.334-2.504V12.51l-0.502,0.288L6.864,11.785z M-0.427,15.519l4.46,2.576V13.06
	l-4.46-2.577V15.519z M8.306,6.712L3.845,4.135v5.038l4.461,2.572V6.712z M14.651,5.228l-0.504,0.293v4.087L13.761,9.83l0.891,0.515
	l4.436-2.558L14.651,5.228z M9.877,12.071v1.424l4.46,2.575v-5.036l-1.33-0.768L9.877,12.071z M15.092,10.962v5.037l4.335-2.503
	V8.46L15.092,10.962z M13.396,4.135L9.059,6.639v5.035l1.496-0.864l1.697-0.979l0,0l1.142-0.658V4.135H13.396z"/>
<rect x="-2.5" y="-2.5" class="st0" width="24" height="24"/>
</svg>
