<?xml version="1.0" encoding="utf-8"?>
<!-- Generator: Adobe Illustrator 13.0.0, SVG Export Plug-In . SVG Version: 6.00 Build 14948)  -->
<!DOCTYPE svg PUBLIC "-//W3C//DTD SVG 1.1//EN" "http://www.w3.org/Graphics/SVG/1.1/DTD/svg11.dtd">
<svg version="1.1" id="Layer_1" xmlns="http://www.w3.org/2000/svg" xmlns:xlink="http://www.w3.org/1999/xlink" x="0px" y="0px"
	 width="24px" height="24px" viewBox="-3.02 -2 24 24" style="enable-background:new -3.02 -2 24 24;" xml:space="preserve">
<style type="text/css">
<![CDATA[
	.st0{fill:none;}
]]>
</style>
<g id="Layer_1_1_">
	<path d="M16.975,6.933c-1.448-3.557-4.874-5.795-8.56-5.795c0,0,0,0-0.132,0V-0.84L3.936,2.191l4.348,3.028V3.243c0,0,0,0,0.132,0
		c2.897,0,5.662,1.712,6.85,4.479c0.394,0.923,0.526,1.843,0.526,2.898c0,2.896-1.712,5.663-4.479,6.848
		c-0.924,0.395-1.843,0.528-2.897,0.528c-2.898,0-5.665-1.712-6.851-4.479c-0.396-0.922-0.527-1.843-0.527-2.896
		c0-1.713,0.658-3.427,1.844-4.742l0.264-0.264L1.696,4.296L1.433,4.562c-1.448,1.71-2.237,3.818-2.237,6.059
		c0,1.184,0.262,2.502,0.789,3.554l0,0c1.447,3.559,5.004,5.666,8.561,5.666c1.185,0,2.369-0.264,3.556-0.791
		c3.557-1.447,5.665-5.005,5.665-8.56C17.766,9.304,17.504,8.117,16.975,6.933z M6.702,14.046V7.459L4.067,7.722v1.055h1.316v5.401
		H6.7v-0.132H6.702z M10.258,14.176c0.658,0,1.185-0.262,1.581-0.659c0.396-0.395,0.658-1.054,0.658-1.843V9.83
		c0-0.792-0.263-1.317-0.658-1.844c-0.396-0.395-0.922-0.659-1.581-0.659c-0.657,0-1.185,0.264-1.58,0.659
		C8.283,8.38,8.018,9.039,8.018,9.83v1.844c0,0.789,0.266,1.316,0.66,1.843C9.073,13.912,9.599,14.176,10.258,14.176z M9.337,9.83
		c0-0.396,0.133-0.792,0.263-0.923c0.132-0.263,0.396-0.395,0.659-0.395c0.263,0,0.526,0.132,0.658,0.395
		c0.131,0.264,0.265,0.528,0.265,0.923v2.105c0,0.397-0.135,0.792-0.265,0.924c-0.132,0.263-0.396,0.396-0.658,0.396
		c-0.264,0-0.529-0.133-0.659-0.396c-0.131-0.265-0.263-0.528-0.263-0.924V9.83L9.337,9.83z"/>
</g>
<rect x="-3.519" y="-2.5" class="st0" width="24" height="24"/>
</svg>
