<?xml version="1.0" encoding="utf-8"?>
<!-- Generator: Adobe Illustrator 13.0.0, SVG Export Plug-In . SVG Version: 6.00 Build 14948)  -->
<!DOCTYPE svg PUBLIC "-//W3C//DTD SVG 1.1//EN" "http://www.w3.org/Graphics/SVG/1.1/DTD/svg11.dtd">
<svg version="1.1" id="Layer_1" xmlns="http://www.w3.org/2000/svg" xmlns:xlink="http://www.w3.org/1999/xlink" x="0px" y="0px"
	 width="24px" height="24px" viewBox="0 0 24 24" style="enable-background:new 0 0 24 24;" xml:space="preserve">
<style type="text/css">
<![CDATA[
	.st0{fill:none;}
]]>
</style>
<rect x="0.01" y="0.01" class="st0" width="24" height="24"/>
<g>
	<g>
		<path d="M9.048,5.338c0.15,0.05,0.363,0.1,0.622,0.1c0.248,0,0.539-0.062,0.85-0.199c-0.009-0.445-0.364-0.802-0.811-0.802
			c-0.449,0-0.812,0.364-0.812,0.813c0,0.011,0,0.021,0,0.031C8.939,5.296,8.984,5.317,9.048,5.338z M19.365,15.711
			c0.541,0,1.104,0.084,1.668,0.266l-2.463-1.859c-0.646-0.229-1.377-0.313-2.108-0.316c-1.718-0.012-3.071,0.396-3.753,0.686
			c-1.063,0.448-2.735,0.962-2.742,0.965c-2.627,0.771-4.118,0.971-4.913,1.028c0.592,0.751,2.604,3.06,5.258,3.046
			c0.193,0,0.393-0.012,0.598-0.037c0.01-0.002,0.021-0.004,0.031-0.004c0.034,0,1.098-0.018,3.465-1.749
			c0.006-0.005,1.14-0.813,2.434-1.415c0.188-0.087,0.374-0.168,0.563-0.24C17.988,15.849,18.658,15.711,19.365,15.711z
			 M21.908,17.078c-0.912-0.619-1.871-0.849-2.758-0.816c-0.615,0.021-1.192,0.172-1.69,0.406c-0.035,0.015-0.07,0.03-0.104,0.047
			c1.812,0.734,3.715,0.703,3.717,0.703c0.42-0.016,0.664-0.073,0.785-0.137c0.121-0.064,0.102-0.085,0.104-0.092
			C21.969,17.164,21.908,17.084,21.908,17.078z M5.961,12.719c0-3.698,1.741-6.118,2.567-7.063C8.443,5.604,8.361,5.548,8.287,5.484
			c-3.435,0.722-6.223,3.672-6.229,8.602c0,0.434,0.034,0.895,0.08,1.361c0.37,0.162,1.22,0.455,2.283,0.452
			c0.091,0,0.194-0.004,0.297-0.007c0.272-0.012,0.899-0.082,1.619-0.201C6.08,14.627,5.961,13.631,5.961,12.719z M9.126,5.896
			C8.458,6.617,6.56,8.961,6.56,12.713H6.314l0.246,0.004c0.004,0.882,0.109,1.839,0.364,2.875c0.743-0.147,1.674-0.371,2.856-0.715
			l0,0l0.015-0.004l0.014-0.006c0.015-0.004,0.033-0.01,0.058-0.019c0.047-0.015,0.117-0.035,0.203-0.063
			c0.172-0.056,0.412-0.131,0.685-0.224c0.543-0.183,1.205-0.445,1.719-0.631c0.871-0.313,2.345-0.731,3.988-0.733
			c0.677,0,1.366,0.075,2.019,0.266c-0.173-4.129-3.449-7.497-7.382-8.061c-0.356,0.35-0.881,0.562-1.446,0.563
			C9.469,5.964,9.295,5.935,9.126,5.896z M12.363,7.752c0.206-0.052,0.413-0.078,0.613-0.078c1.155,0,2.204,0.789,2.497,1.967
			l-0.158,0.04l0.158-0.039c0.053,0.21,0.077,0.418,0.077,0.624c0,1.157-0.779,2.207-1.944,2.499
			c-0.207,0.05-0.414,0.071-0.615,0.071c-1.155,0-2.206-0.789-2.495-1.962c-0.053-0.21-0.076-0.421-0.076-0.627
			C10.419,9.088,11.197,8.037,12.363,7.752z M13.055,12.244c0.156,0,0.316-0.02,0.473-0.057c0.896-0.226,1.494-1.033,1.494-1.922
			c0-0.157-0.02-0.32-0.059-0.481c-0.227-0.908-1.035-1.517-1.921-1.517c-0.155,0-0.312,0.021-0.472,0.061
			c-0.896,0.219-1.495,1.026-1.495,1.921c0,0.156,0.019,0.32,0.06,0.482C11.359,11.635,12.168,12.244,13.055,12.244z"/>
	</g>
</g>
</svg>
