<?xml version="1.0" encoding="utf-8"?>
<!-- Generator: Adobe Illustrator 13.0.0, SVG Export Plug-In . SVG Version: 6.00 Build 14948)  -->
<!DOCTYPE svg PUBLIC "-//W3C//DTD SVG 1.1//EN" "http://www.w3.org/Graphics/SVG/1.1/DTD/svg11.dtd">
<svg version="1.1" id="Layer_1" xmlns="http://www.w3.org/2000/svg" xmlns:xlink="http://www.w3.org/1999/xlink" x="0px" y="0px"
	 width="24px" height="24px" viewBox="-5.036 -3.65 24 24" style="enable-background:new -5.036 -3.65 24 24;" xml:space="preserve"
	>
<style type="text/css">
<![CDATA[
	.st0{fill:none;}
]]>
</style>
<g>
	<g>
		<path d="M15.001,0.726c0,0-4.737,0.556-8.593-3.234c0,0-3.759,3.53-8.528,3.138c0,0-0.196,3.79,0.154,7.451
			c0.343,3.616,2.853,8.885,8.375,10.128c0,0,7.459-1.716,8.52-10.359C15.128,6.234,15.162,3.864,15.001,0.726z M9.081,11.877
			L6.463,9.975l-2.618,1.902l1.003-3.078L2.231,6.897h3.234l0.998-3.076l0.999,3.076h3.236l-2.616,1.9L9.081,11.877z"/>
	</g>
</g>
<rect x="-5.536" y="-4.15" class="st0" width="24" height="24"/>
</svg>
