<?xml version="1.0" encoding="utf-8"?>
<!-- Generator: Adobe Illustrator 13.0.0, SVG Export Plug-In . SVG Version: 6.00 Build 14948)  -->
<!DOCTYPE svg PUBLIC "-//W3C//DTD SVG 1.1//EN" "http://www.w3.org/Graphics/SVG/1.1/DTD/svg11.dtd">
<svg version="1.1" id="Layer_1" xmlns="http://www.w3.org/2000/svg" xmlns:xlink="http://www.w3.org/1999/xlink" x="0px" y="0px"
	 width="24px" height="24px" viewBox="-3.179 -3.179 24 24" style="enable-background:new -3.179 -3.179 24 24;"
	 xml:space="preserve">
<style type="text/css">
<![CDATA[
	.st0{fill:none;}
]]>
</style>
<rect x="-0.5" y="-0.5" class="st0" width="24" height="24"/>
<path d="M16.5,7.012c0.674,0.677,1.251,1.479,1.614,2.223l1.777-1.805c0.02-0.014,0.037-0.028,0.053-0.044
	c0.44-0.44-0.126-1.719-1.264-2.857c-1.139-1.138-2.417-1.704-2.857-1.264c-0.005,0.004-0.008,0.009-0.013,0.014l-0.009-0.01
	l-2.006,2.039c0.295,0.093,0.601,0.226,0.915,0.39C15.324,6.02,15.957,6.47,16.5,7.012z M19.954,15.59l-0.27,0.271L19.954,15.59
	l-4.089-4.071l1.452-1.476c-0.079-0.207-0.193-0.446-0.338-0.696c-0.31-0.533-0.748-1.112-1.226-1.59
	C15.298,7.3,14.74,6.903,14.219,6.629c-0.515-0.277-1.013-0.418-1.244-0.412c-0.036-0.001-0.063,0.002-0.082,0.005l-0.823,0.835
	L12.041,7.03l-0.336,0.344L7.384,3.07C7.259,2.945,7.091,2.881,6.927,2.881S6.595,2.945,6.47,3.072L3.045,6.495
	C2.92,6.621,2.855,6.788,2.856,6.952c0,0.165,0.064,0.332,0.189,0.458l4.371,4.353l-2.319,2.372l-0.581,0.59
	c0.001,0,0.003,0,0.005,0l-0.065,0.066l-0.938,4.838l5.085-0.738l0.409-0.418l2.547-2.584l4.057,4.041
	c0.126,0.125,0.293,0.189,0.457,0.189h0.001c0.165,0,0.331-0.064,0.456-0.189l3.425-3.426c0.126-0.125,0.19-0.293,0.189-0.457
	C20.145,15.883,20.08,15.717,19.954,15.59z M8.237,18.172l-2.069,0.299c-0.016-0.027-0.032-0.057-0.05-0.088
	c-0.15-0.258-0.363-0.541-0.596-0.773c-0.217-0.217-0.481-0.406-0.729-0.539l0.37-1.908l0.43-0.441
	c0.526,0.098,1.166,0.389,1.924,1.145c0.674,0.676,1.01,1.313,1.166,1.852L8.237,18.172z M7.95,11.216L3.67,6.952l3.257-3.257
	l0.929,0.924L6.72,5.755l0.54,0.542L8.397,5.16l1.262,1.255L8.536,7.539L9.076,8.08l1.125-1.124l0.969,0.965L7.95,11.216z
	 M16.072,19.307l-3.977-3.963l3.232-3.282l0.834,0.831l-1.13,1.133l0.54,0.539l1.133-1.131l1.261,1.256l-1.118,1.119l0.541,0.541
	l1.12-1.119l0.821,0.816L16.072,19.307z"/>
</svg>
