<?xml version="1.0" encoding="utf-8"?>
<!-- Generator: Adobe Illustrator 13.0.0, SVG Export Plug-In . SVG Version: 6.00 Build 14948)  -->
<!DOCTYPE svg PUBLIC "-//W3C//DTD SVG 1.1//EN" "http://www.w3.org/Graphics/SVG/1.1/DTD/svg11.dtd">
<svg version="1.1" id="Layer_1"
	xmlns="http://www.w3.org/2000/svg"
	xmlns:xlink="http://www.w3.org/1999/xlink" x="0px" y="0px" width="100px" height="100px" viewBox="0 0 100 100" style="enable-background:new 0 0 100 100;" xml:space="preserve">
	<style type="text/css">
		<![CDATA[
]]>
	</style>
	<path d="M50.276,1.893c-26.51,0.002-47.997,21.491-48,48c0.002,26.511,21.49,47.998,48,48.001
	c26.511-0.003,47.998-21.49,48.001-48.001C98.274,23.384,76.787,1.896,50.276,1.893z M80.779,80.396
	c-7.813,7.812-18.583,12.636-30.503,12.637c-11.919-0.001-22.689-4.825-30.503-12.637C11.963,72.583,7.139,61.813,7.137,49.893
	c0.002-11.919,4.826-22.687,12.637-30.503c7.813-7.811,18.584-12.634,30.503-12.634c11.92,0,22.69,4.824,30.503,12.634
	c7.812,7.816,12.636,18.584,12.636,30.503C93.415,61.813,88.591,72.583,80.779,80.396z M36.86,43.846
	c2.56,0,4.636-2.077,4.636-4.636c0-2.559-2.076-4.636-4.636-4.636c-2.561,0-4.635,2.077-4.635,4.636
	C32.225,41.77,34.299,43.846,36.86,43.846z M62.936,34.574c-2.561,0-4.636,2.077-4.636,4.636c0,2.56,2.075,4.636,4.636,4.636
	c2.56,0,4.636-2.077,4.636-4.636C67.571,36.651,65.495,34.574,62.936,34.574z M49.518,59.146c-6.318-0.001-11.977,3.151-15.924,8.01
	c-0.849,1.04-0.692,2.572,0.351,3.42c0.451,0.368,0.994,0.547,1.533,0.547c0.706,0,1.405-0.306,1.886-0.895l-0.002-0.003
	c3.212-3.924,7.491-6.214,12.156-6.216c4.478,0.002,8.592,2.108,11.761,5.748c0.879,1.014,2.414,1.124,3.428,0.246
	c1.014-0.881,1.123-2.416,0.247-3.43C61.038,62.047,55.577,59.145,49.518,59.146z"/>
	<!-- <rect x="0.01" y="0.01" width="100" height="100"/> -->
</svg>
