<?xml version="1.0" encoding="utf-8"?>
<!-- Generator: Adobe Illustrator 13.0.0, SVG Export Plug-In . SVG Version: 6.00 Build 14948)  -->
<!DOCTYPE svg PUBLIC "-//W3C//DTD SVG 1.1//EN" "http://www.w3.org/Graphics/SVG/1.1/DTD/svg11.dtd">
<svg version="1.1" id="Layer_1" xmlns="http://www.w3.org/2000/svg" xmlns:xlink="http://www.w3.org/1999/xlink" x="0px" y="0px"
	 width="24px" height="24px" viewBox="-3.027 -4.573 24 24" style="enable-background:new -3.027 -4.573 24 24;"
	 xml:space="preserve">
<style type="text/css">
<![CDATA[
	.st0{fill:none;}
]]>
</style>
<rect x="-3.527" y="-5.073" class="st0" width="24" height="24"/>
<g>
	<g>
		<path d="M8.511-3.165c-5.524,0.003-10,4.481-10,10.001c0,5.519,4.476,10,10,10c5.522,0,9.999-4.481,9.999-10
			C18.51,1.316,14.033-3.162,8.511-3.165z M8.511,14.896c-4.451-0.009-8.052-3.612-8.06-8.059c0.008-4.448,3.609-8.053,8.06-8.061
			c4.451,0.008,8.049,3.613,8.057,8.061C16.561,11.284,12.962,14.887,8.511,14.896z M12.798,2.603L6.872,9.016L4.197,6.382
			L2.834,7.763l4.101,4.043l7.286-7.89L12.798,2.603z"/>
	</g>
</g>
</svg>
