<?xml version="1.0" encoding="utf-8"?>
<!-- Generator: Adobe Illustrator 13.0.0, SVG Export Plug-In . SVG Version: 6.00 Build 14948)  -->
<!DOCTYPE svg PUBLIC "-//W3C//DTD SVG 1.1//EN" "http://www.w3.org/Graphics/SVG/1.1/DTD/svg11.dtd">
<svg version="1.1" id="Layer_1" xmlns="http://www.w3.org/2000/svg" xmlns:xlink="http://www.w3.org/1999/xlink" x="0px" y="0px"
	 width="24px" height="24px" viewBox="0 0 24 24" style="enable-background:new 0 0 24 24;" xml:space="preserve">
<style type="text/css">
<![CDATA[
	.st0{fill:none;}
]]>
</style>
<rect x="-0.5" y="-0.5" class="st0" width="24" height="24"/>
<g>
	<path d="M11.521,11.748c2.817,0,5.099-2.281,5.099-5.097c0-2.818-2.281-5.101-5.099-5.101c-2.816,0-5.097,2.282-5.097,5.101
		C6.424,9.466,8.706,11.748,11.521,11.748"/>
	<path d="M15.014,12.095c-1.012,0.659-2.209,1.044-3.509,1.044c-1.293,0-2.525-0.383-3.538-1.038
		c-3.402,0.702-5.977,3.719-5.977,7.332v2.017h19.02v-2.017C21.01,15.809,18.443,12.784,15.014,12.095"/>
</g>
</svg>
