<?xml version="1.0" encoding="utf-8"?>
<!-- Generator: Adobe Illustrator 13.0.0, SVG Export Plug-In . SVG Version: 6.00 Build 14948)  -->
<!DOCTYPE svg PUBLIC "-//W3C//DTD SVG 1.1//EN" "http://www.w3.org/Graphics/SVG/1.1/DTD/svg11.dtd">
<svg version="1.1" id="Layer_1" xmlns="http://www.w3.org/2000/svg" xmlns:xlink="http://www.w3.org/1999/xlink" x="0px" y="0px"
	 width="24px" height="24px" viewBox="-3.414 -4.434 24 24" style="enable-background:new -3.414 -4.434 24 24;"
	 xml:space="preserve">
<style type="text/css">
<![CDATA[
	.st0{fill:none;}
]]>
</style>
<g>
	<g>
		<g>
			<path d="M17.953,13.47L9.637-1.023C9.328-1.613,8.74-1.85,8.079-1.85c-0.66,0-1.249,0.236-1.557,0.826l-8.271,14.258
				l-0.023,0.094c-0.118,0.235-0.259,0.565-0.259,0.991c0,0.776,0.471,1.391,1.295,1.625c0.188,0.071,0.424,0.025,0.612,0.025
				h16.521c0.234,0,0.541,0,0.775-0.072l0.189-0.071c0.354-0.188,0.66-0.541,0.777-0.941C18.352,14.151,17.953,13.47,17.953,13.47z
				 M8.126,13.093c-0.707,0-1.272-0.564-1.272-1.273c0-0.707,0.565-1.271,1.272-1.271s1.272,0.565,1.272,1.271
				C9.4,12.528,8.835,13.093,8.126,13.093z M9.447,4.82l-0.542,4.62H7.348L6.807,5.008c-0.283-1.72,0.588-2.19,1.32-2.19
				C9.682,2.817,9.447,4.774,9.447,4.82z"/>
		</g>
	</g>
</g>
<rect x="-3.914" y="-4.933" class="st0" width="24" height="24"/>
</svg>
