<?xml version="1.0" encoding="utf-8"?>
<!-- Generator: Adobe Illustrator 13.0.0, SVG Export Plug-In . SVG Version: 6.00 Build 14948)  -->
<!DOCTYPE svg PUBLIC "-//W3C//DTD SVG 1.1//EN" "http://www.w3.org/Graphics/SVG/1.1/DTD/svg11.dtd">
<svg version="1.1" id="Layer_1" xmlns="http://www.w3.org/2000/svg" xmlns:xlink="http://www.w3.org/1999/xlink" x="0px" y="0px"
	 width="24px" height="24px" viewBox="-3.958 -3.403 24 24" style="enable-background:new -3.958 -3.403 24 24;"
	 xml:space="preserve">
<style type="text/css">
<![CDATA[
	.st0{fill:none;}
]]>
</style>
<rect x="-4.458" y="-3.903" class="st0" width="24" height="24"/>
<g>
	<path d="M-1.505,11.13L-1.505,11.13C-2.33,9.159-1.403,6.893,0.566,6.07c0.945-0.398,2.01-0.402,2.959-0.013
		c0.949,0.388,1.704,1.137,2.1,2.082c0.826,1.97-0.099,4.235-2.069,5.061S-0.681,13.097-1.505,11.13"/>
	<path d="M7.354,3.465L7.354,3.465C6.529,1.496,7.457-0.769,9.425-1.596c0.947-0.395,2.01-0.399,2.959-0.013
		c0.948,0.389,1.703,1.14,2.103,2.085c0.823,1.969-0.102,4.232-2.074,5.058C10.446,6.36,8.178,5.434,7.354,3.465"/>
	<path d="M9.459,15.719L9.459,15.719c-0.823-1.971,0.103-4.233,2.071-5.059c0.945-0.397,2.01-0.399,2.958-0.013
		c0.95,0.389,1.705,1.138,2.102,2.083c0.825,1.97-0.102,4.233-2.071,5.058C12.551,18.614,10.285,17.688,9.459,15.719"/>
</g>
</svg>
