<?xml version="1.0" encoding="utf-8"?>
<!-- Generator: Adobe Illustrator 13.0.0, SVG Export Plug-In . SVG Version: 6.00 Build 14948)  -->
<!DOCTYPE svg PUBLIC "-//W3C//DTD SVG 1.1//EN" "http://www.w3.org/Graphics/SVG/1.1/DTD/svg11.dtd">
<svg version="1.1" id="Layer_1" xmlns="http://www.w3.org/2000/svg" xmlns:xlink="http://www.w3.org/1999/xlink" x="0px" y="0px"
	 width="24px" height="24px" viewBox="0 0 24 24" style="enable-background:new 0 0 24 24;" xml:space="preserve">
<style type="text/css">
<![CDATA[
	.st0{fill:none;}
]]>
</style>
<rect class="st0" width="24" height="24"/>
<g>
	<path d="M2.119,15.283L2.119,15.283C1.22,13.137,2.23,10.669,4.375,9.771c1.029-0.433,2.189-0.437,3.223-0.013
		c1.033,0.422,1.856,1.238,2.288,2.268c0.899,2.146-0.109,4.613-2.255,5.511C5.485,18.436,3.017,17.427,2.119,15.283"/>
	<path d="M11.769,6.934L11.769,6.934c-0.899-2.145,0.111-4.612,2.257-5.513c1.03-0.43,2.189-0.435,3.223-0.014
		c1.032,0.424,1.854,1.241,2.289,2.272c0.897,2.144-0.111,4.61-2.258,5.509C15.136,10.087,12.667,9.079,11.769,6.934"/>
	<path d="M14.063,20.282L14.063,20.282c-0.897-2.146,0.111-4.612,2.256-5.511c1.031-0.432,2.189-0.435,3.222-0.012
		c1.034,0.423,1.857,1.239,2.289,2.269c0.899,2.145-0.111,4.61-2.257,5.509C17.43,23.438,14.962,22.427,14.063,20.282"/>
</g>
</svg>
