<?xml version="1.0" encoding="utf-8"?>
<!-- Generator: Adobe Illustrator 13.0.0, SVG Export Plug-In . SVG Version: 6.00 Build 14948)  -->
<!DOCTYPE svg PUBLIC "-//W3C//DTD SVG 1.1//EN" "http://www.w3.org/Graphics/SVG/1.1/DTD/svg11.dtd">
<svg version="1.1" id="Layer_1" xmlns="http://www.w3.org/2000/svg" xmlns:xlink="http://www.w3.org/1999/xlink" x="0px" y="0px"
	 width="24px" height="24px" viewBox="0 0 24 24" style="enable-background:new 0 0 24 24;" xml:space="preserve">
<g id="XMLID_4_">
	<polygon id="XMLID_6_" points="10.748,13.479 14.159,11.707 10.748,9.873 	"/>
	<path id="XMLID_9_" d="M12.01,0.512c-6.261,0-11.385,5.123-11.385,11.386c0,6.262,5.124,11.385,11.385,11.385
		c6.262,0,11.386-5.123,11.386-11.385C23.396,5.635,18.271,0.512,12.01,0.512z M18.337,14.491c0,1.012-0.823,1.835-1.837,1.835
		H7.518c-1.011,0-1.833-0.823-1.833-1.835v-5.25c0-1.012,0.822-1.835,1.833-1.835h9.047c1.012,0,1.834,0.823,1.834,1.835v5.25
		H18.337z"/>
</g>
</svg>
